<?xml version="1.0" encoding="utf-8" standalone="no"?>
<!DOCTYPE svg PUBLIC "-//W3C//DTD SVG 1.1//EN"
  "http://www.w3.org/Graphics/SVG/1.1/DTD/svg11.dtd">
<svg xmlns:xlink="http://www.w3.org/1999/xlink" width="611.396875pt" height="413.120931pt" viewBox="0 0 611.396875 413.120931" xmlns="http://www.w3.org/2000/svg" version="1.1">
 <metadata>
  <rdf:RDF xmlns:dc="http://purl.org/dc/elements/1.1/" xmlns:cc="http://creativecommons.org/ns#" xmlns:rdf="http://www.w3.org/1999/02/22-rdf-syntax-ns#">
   <cc:Work>
    <dc:type rdf:resource="http://purl.org/dc/dcmitype/StillImage"/>
    <dc:date>2024-09-08T14:57:41.461413</dc:date>
    <dc:format>image/svg+xml</dc:format>
    <dc:creator>
     <cc:Agent>
      <dc:title>Matplotlib v3.9.2, https://matplotlib.org/</dc:title>
     </cc:Agent>
    </dc:creator>
   </cc:Work>
  </rdf:RDF>
 </metadata>
 <defs>
  <style type="text/css">*{stroke-linejoin: round; stroke-linecap: butt}</style>
 </defs>
 <g id="figure_1">
  <g id="patch_1">
   <path d="M 0 413.120931 
L 611.396875 413.120931 
L 611.396875 0 
L 0 0 
z
" style="fill: #ffffff"/>
  </g>
  <g id="axes_1">
   <g id="patch_2">
    <path d="M 46.196875 358.6375 
L 604.196875 358.6375 
L 604.196875 25.9975 
L 46.196875 25.9975 
z
" style="fill: #d1e4f1"/>
   </g>
   <g id="patch_3">
    <path d="M 71.560511 358.6375 
L 88.469602 358.6375 
L 88.469602 357.8455 
L 71.560511 357.8455 
z
" clip-path="url(#p6bc31f8400)" style="fill: #4695c8; opacity: 0.6; stroke: #335574; stroke-linejoin: miter"/>
   </g>
   <g id="patch_4">
    <path d="M 88.469602 358.6375 
L 105.378693 358.6375 
L 105.378693 356.2615 
L 88.469602 356.2615 
z
" clip-path="url(#p6bc31f8400)" style="fill: #4695c8; opacity: 0.6; stroke: #335574; stroke-linejoin: miter"/>
   </g>
   <g id="patch_5">
    <path d="M 105.378693 358.6375 
L 122.287784 358.6375 
L 122.287784 336.4615 
L 105.378693 336.4615 
z
" clip-path="url(#p6bc31f8400)" style="fill: #4695c8; opacity: 0.6; stroke: #335574; stroke-linejoin: miter"/>
   </g>
   <g id="patch_6">
    <path d="M 122.287784 358.6375 
L 139.196875 358.6375 
L 139.196875 195.4855 
L 122.287784 195.4855 
z
" clip-path="url(#p6bc31f8400)" style="fill: #4695c8; opacity: 0.6; stroke: #335574; stroke-linejoin: miter"/>
   </g>
   <g id="patch_7">
    <path d="M 139.196875 358.6375 
L 156.105966 358.6375 
L 156.105966 41.8375 
L 139.196875 41.8375 
z
" clip-path="url(#p6bc31f8400)" style="fill: #4695c8; opacity: 0.6; stroke: #335574; stroke-linejoin: miter"/>
   </g>
   <g id="patch_8">
    <path d="M 156.105966 358.6375 
L 173.015057 358.6375 
L 173.015057 56.8855 
L 156.105966 56.8855 
z
" clip-path="url(#p6bc31f8400)" style="fill: #4695c8; opacity: 0.6; stroke: #335574; stroke-linejoin: miter"/>
   </g>
   <g id="patch_9">
    <path d="M 173.015057 358.6375 
L 189.924148 358.6375 
L 189.924148 123.4135 
L 173.015057 123.4135 
z
" clip-path="url(#p6bc31f8400)" style="fill: #4695c8; opacity: 0.6; stroke: #335574; stroke-linejoin: miter"/>
   </g>
   <g id="patch_10">
    <path d="M 189.924148 358.6375 
L 206.833239 358.6375 
L 206.833239 161.4295 
L 189.924148 161.4295 
z
" clip-path="url(#p6bc31f8400)" style="fill: #4695c8; opacity: 0.6; stroke: #335574; stroke-linejoin: miter"/>
   </g>
   <g id="patch_11">
    <path d="M 206.833239 358.6375 
L 223.74233 358.6375 
L 223.74233 194.6935 
L 206.833239 194.6935 
z
" clip-path="url(#p6bc31f8400)" style="fill: #4695c8; opacity: 0.6; stroke: #335574; stroke-linejoin: miter"/>
   </g>
   <g id="patch_12">
    <path d="M 223.74233 358.6375 
L 240.65142 358.6375 
L 240.65142 258.8455 
L 223.74233 258.8455 
z
" clip-path="url(#p6bc31f8400)" style="fill: #4695c8; opacity: 0.6; stroke: #335574; stroke-linejoin: miter"/>
   </g>
   <g id="patch_13">
    <path d="M 240.65142 358.6375 
L 257.560511 358.6375 
L 257.560511 298.4455 
L 240.65142 298.4455 
z
" clip-path="url(#p6bc31f8400)" style="fill: #4695c8; opacity: 0.6; stroke: #335574; stroke-linejoin: miter"/>
   </g>
   <g id="patch_14">
    <path d="M 257.560511 358.6375 
L 274.469602 358.6375 
L 274.469602 313.4935 
L 257.560511 313.4935 
z
" clip-path="url(#p6bc31f8400)" style="fill: #4695c8; opacity: 0.6; stroke: #335574; stroke-linejoin: miter"/>
   </g>
   <g id="patch_15">
    <path d="M 274.469602 358.6375 
L 291.378693 358.6375 
L 291.378693 323.7895 
L 274.469602 323.7895 
z
" clip-path="url(#p6bc31f8400)" style="fill: #4695c8; opacity: 0.6; stroke: #335574; stroke-linejoin: miter"/>
   </g>
   <g id="patch_16">
    <path d="M 291.378693 358.6375 
L 308.287784 358.6375 
L 308.287784 344.3815 
L 291.378693 344.3815 
z
" clip-path="url(#p6bc31f8400)" style="fill: #4695c8; opacity: 0.6; stroke: #335574; stroke-linejoin: miter"/>
   </g>
   <g id="patch_17">
    <path d="M 308.287784 358.6375 
L 325.196875 358.6375 
L 325.196875 353.8855 
L 308.287784 353.8855 
z
" clip-path="url(#p6bc31f8400)" style="fill: #4695c8; opacity: 0.6; stroke: #335574; stroke-linejoin: miter"/>
   </g>
   <g id="patch_18">
    <path d="M 325.196875 358.6375 
L 342.105966 358.6375 
L 342.105966 353.8855 
L 325.196875 353.8855 
z
" clip-path="url(#p6bc31f8400)" style="fill: #4695c8; opacity: 0.6; stroke: #335574; stroke-linejoin: miter"/>
   </g>
   <g id="patch_19">
    <path d="M 342.105966 358.6375 
L 359.015057 358.6375 
L 359.015057 355.4695 
L 342.105966 355.4695 
z
" clip-path="url(#p6bc31f8400)" style="fill: #4695c8; opacity: 0.6; stroke: #335574; stroke-linejoin: miter"/>
   </g>
   <g id="patch_20">
    <path d="M 359.015057 358.6375 
L 375.924148 358.6375 
L 375.924148 357.8455 
L 359.015057 357.8455 
z
" clip-path="url(#p6bc31f8400)" style="fill: #4695c8; opacity: 0.6; stroke: #335574; stroke-linejoin: miter"/>
   </g>
   <g id="patch_21">
    <path d="M 375.924148 358.6375 
L 392.833239 358.6375 
L 392.833239 357.8455 
L 375.924148 357.8455 
z
" clip-path="url(#p6bc31f8400)" style="fill: #4695c8; opacity: 0.6; stroke: #335574; stroke-linejoin: miter"/>
   </g>
   <g id="patch_22">
    <path d="M 392.833239 358.6375 
L 409.74233 358.6375 
L 409.74233 358.6375 
L 392.833239 358.6375 
z
" clip-path="url(#p6bc31f8400)" style="fill: #4695c8; opacity: 0.6; stroke: #335574; stroke-linejoin: miter"/>
   </g>
   <g id="patch_23">
    <path d="M 409.74233 358.6375 
L 426.65142 358.6375 
L 426.65142 358.6375 
L 409.74233 358.6375 
z
" clip-path="url(#p6bc31f8400)" style="fill: #4695c8; opacity: 0.6; stroke: #335574; stroke-linejoin: miter"/>
   </g>
   <g id="patch_24">
    <path d="M 426.65142 358.6375 
L 443.560511 358.6375 
L 443.560511 358.6375 
L 426.65142 358.6375 
z
" clip-path="url(#p6bc31f8400)" style="fill: #4695c8; opacity: 0.6; stroke: #335574; stroke-linejoin: miter"/>
   </g>
   <g id="patch_25">
    <path d="M 443.560511 358.6375 
L 460.469602 358.6375 
L 460.469602 358.6375 
L 443.560511 358.6375 
z
" clip-path="url(#p6bc31f8400)" style="fill: #4695c8; opacity: 0.6; stroke: #335574; stroke-linejoin: miter"/>
   </g>
   <g id="patch_26">
    <path d="M 460.469602 358.6375 
L 477.378693 358.6375 
L 477.378693 358.6375 
L 460.469602 358.6375 
z
" clip-path="url(#p6bc31f8400)" style="fill: #4695c8; opacity: 0.6; stroke: #335574; stroke-linejoin: miter"/>
   </g>
   <g id="patch_27">
    <path d="M 477.378693 358.6375 
L 494.287784 358.6375 
L 494.287784 358.6375 
L 477.378693 358.6375 
z
" clip-path="url(#p6bc31f8400)" style="fill: #4695c8; opacity: 0.6; stroke: #335574; stroke-linejoin: miter"/>
   </g>
   <g id="patch_28">
    <path d="M 494.287784 358.6375 
L 511.196875 358.6375 
L 511.196875 358.6375 
L 494.287784 358.6375 
z
" clip-path="url(#p6bc31f8400)" style="fill: #4695c8; opacity: 0.6; stroke: #335574; stroke-linejoin: miter"/>
   </g>
   <g id="patch_29">
    <path d="M 511.196875 358.6375 
L 528.105966 358.6375 
L 528.105966 358.6375 
L 511.196875 358.6375 
z
" clip-path="url(#p6bc31f8400)" style="fill: #4695c8; opacity: 0.6; stroke: #335574; stroke-linejoin: miter"/>
   </g>
   <g id="patch_30">
    <path d="M 528.105966 358.6375 
L 545.015057 358.6375 
L 545.015057 358.6375 
L 528.105966 358.6375 
z
" clip-path="url(#p6bc31f8400)" style="fill: #4695c8; opacity: 0.6; stroke: #335574; stroke-linejoin: miter"/>
   </g>
   <g id="patch_31">
    <path d="M 545.015057 358.6375 
L 561.924148 358.6375 
L 561.924148 358.6375 
L 545.015057 358.6375 
z
" clip-path="url(#p6bc31f8400)" style="fill: #4695c8; opacity: 0.6; stroke: #335574; stroke-linejoin: miter"/>
   </g>
   <g id="patch_32">
    <path d="M 561.924148 358.6375 
L 578.833239 358.6375 
L 578.833239 357.8455 
L 561.924148 357.8455 
z
" clip-path="url(#p6bc31f8400)" style="fill: #4695c8; opacity: 0.6; stroke: #335574; stroke-linejoin: miter"/>
   </g>
   <g id="matplotlib.axis_1">
    <g id="xtick_1">
     <g id="line2d_1">
      <path d="M 46.366491 358.6375 
L 46.366491 25.9975 
" clip-path="url(#p6bc31f8400)" style="fill: none; stroke-dasharray: 2.59,1.12; stroke-dashoffset: 0; stroke: #99aab9; stroke-width: 0.7"/>
     </g>
     <g id="line2d_2">
      <defs>
       <path id="mb5d26f465a" d="M 0 0 
L 0 3.5 
" style="stroke: #000000; stroke-width: 0.8"/>
      </defs>
      <g>
       <use xlink:href="#mb5d26f465a" x="46.366491" y="358.6375" style="stroke: #000000; stroke-width: 0.8"/>
      </g>
     </g>
     <g id="text_1">
      <!-- 0.0M -->
      <g transform="translate(39.644558 388.35662) rotate(-45) scale(0.1 -0.1)">
       <defs>
        <path id="DejaVuSans-30" d="M 2034 4250 
Q 1547 4250 1301 3770 
Q 1056 3291 1056 2328 
Q 1056 1369 1301 889 
Q 1547 409 2034 409 
Q 2525 409 2770 889 
Q 3016 1369 3016 2328 
Q 3016 3291 2770 3770 
Q 2525 4250 2034 4250 
z
M 2034 4750 
Q 2819 4750 3233 4129 
Q 3647 3509 3647 2328 
Q 3647 1150 3233 529 
Q 2819 -91 2034 -91 
Q 1250 -91 836 529 
Q 422 1150 422 2328 
Q 422 3509 836 4129 
Q 1250 4750 2034 4750 
z
" transform="scale(0.015625)"/>
        <path id="DejaVuSans-2e" d="M 684 794 
L 1344 794 
L 1344 0 
L 684 0 
L 684 794 
z
" transform="scale(0.015625)"/>
        <path id="DejaVuSans-4d" d="M 628 4666 
L 1569 4666 
L 2759 1491 
L 3956 4666 
L 4897 4666 
L 4897 0 
L 4281 0 
L 4281 4097 
L 3078 897 
L 2444 897 
L 1241 4097 
L 1241 0 
L 628 0 
L 628 4666 
z
" transform="scale(0.015625)"/>
       </defs>
       <use xlink:href="#DejaVuSans-30"/>
       <use xlink:href="#DejaVuSans-2e" x="63.623047"/>
       <use xlink:href="#DejaVuSans-30" x="95.410156"/>
       <use xlink:href="#DejaVuSans-4d" x="159.033203"/>
      </g>
     </g>
    </g>
    <g id="xtick_2">
     <g id="line2d_3">
      <path d="M 79.201941 358.6375 
L 79.201941 25.9975 
" clip-path="url(#p6bc31f8400)" style="fill: none; stroke-dasharray: 2.59,1.12; stroke-dashoffset: 0; stroke: #99aab9; stroke-width: 0.7"/>
     </g>
     <g id="line2d_4">
      <g>
       <use xlink:href="#mb5d26f465a" x="79.201941" y="358.6375" style="stroke: #000000; stroke-width: 0.8"/>
      </g>
     </g>
     <g id="text_2">
      <!-- 0.3M -->
      <g transform="translate(72.480007 388.35662) rotate(-45) scale(0.1 -0.1)">
       <defs>
        <path id="DejaVuSans-33" d="M 2597 2516 
Q 3050 2419 3304 2112 
Q 3559 1806 3559 1356 
Q 3559 666 3084 287 
Q 2609 -91 1734 -91 
Q 1441 -91 1130 -33 
Q 819 25 488 141 
L 488 750 
Q 750 597 1062 519 
Q 1375 441 1716 441 
Q 2309 441 2620 675 
Q 2931 909 2931 1356 
Q 2931 1769 2642 2001 
Q 2353 2234 1838 2234 
L 1294 2234 
L 1294 2753 
L 1863 2753 
Q 2328 2753 2575 2939 
Q 2822 3125 2822 3475 
Q 2822 3834 2567 4026 
Q 2313 4219 1838 4219 
Q 1578 4219 1281 4162 
Q 984 4106 628 3988 
L 628 4550 
Q 988 4650 1302 4700 
Q 1616 4750 1894 4750 
Q 2613 4750 3031 4423 
Q 3450 4097 3450 3541 
Q 3450 3153 3228 2886 
Q 3006 2619 2597 2516 
z
" transform="scale(0.015625)"/>
       </defs>
       <use xlink:href="#DejaVuSans-30"/>
       <use xlink:href="#DejaVuSans-2e" x="63.623047"/>
       <use xlink:href="#DejaVuSans-33" x="95.410156"/>
       <use xlink:href="#DejaVuSans-4d" x="159.033203"/>
      </g>
     </g>
    </g>
    <g id="xtick_3">
     <g id="line2d_5">
      <path d="M 112.03739 358.6375 
L 112.03739 25.9975 
" clip-path="url(#p6bc31f8400)" style="fill: none; stroke-dasharray: 2.59,1.12; stroke-dashoffset: 0; stroke: #99aab9; stroke-width: 0.7"/>
     </g>
     <g id="line2d_6">
      <g>
       <use xlink:href="#mb5d26f465a" x="112.03739" y="358.6375" style="stroke: #000000; stroke-width: 0.8"/>
      </g>
     </g>
     <g id="text_3">
      <!-- 0.6M -->
      <g transform="translate(105.315456 388.35662) rotate(-45) scale(0.1 -0.1)">
       <defs>
        <path id="DejaVuSans-36" d="M 2113 2584 
Q 1688 2584 1439 2293 
Q 1191 2003 1191 1497 
Q 1191 994 1439 701 
Q 1688 409 2113 409 
Q 2538 409 2786 701 
Q 3034 994 3034 1497 
Q 3034 2003 2786 2293 
Q 2538 2584 2113 2584 
z
M 3366 4563 
L 3366 3988 
Q 3128 4100 2886 4159 
Q 2644 4219 2406 4219 
Q 1781 4219 1451 3797 
Q 1122 3375 1075 2522 
Q 1259 2794 1537 2939 
Q 1816 3084 2150 3084 
Q 2853 3084 3261 2657 
Q 3669 2231 3669 1497 
Q 3669 778 3244 343 
Q 2819 -91 2113 -91 
Q 1303 -91 875 529 
Q 447 1150 447 2328 
Q 447 3434 972 4092 
Q 1497 4750 2381 4750 
Q 2619 4750 2861 4703 
Q 3103 4656 3366 4563 
z
" transform="scale(0.015625)"/>
       </defs>
       <use xlink:href="#DejaVuSans-30"/>
       <use xlink:href="#DejaVuSans-2e" x="63.623047"/>
       <use xlink:href="#DejaVuSans-36" x="95.410156"/>
       <use xlink:href="#DejaVuSans-4d" x="159.033203"/>
      </g>
     </g>
    </g>
    <g id="xtick_4">
     <g id="line2d_7">
      <path d="M 144.87284 358.6375 
L 144.87284 25.9975 
" clip-path="url(#p6bc31f8400)" style="fill: none; stroke-dasharray: 2.59,1.12; stroke-dashoffset: 0; stroke: #99aab9; stroke-width: 0.7"/>
     </g>
     <g id="line2d_8">
      <g>
       <use xlink:href="#mb5d26f465a" x="144.87284" y="358.6375" style="stroke: #000000; stroke-width: 0.8"/>
      </g>
     </g>
     <g id="text_4">
      <!-- 0.9M -->
      <g transform="translate(138.150906 388.35662) rotate(-45) scale(0.1 -0.1)">
       <defs>
        <path id="DejaVuSans-39" d="M 703 97 
L 703 672 
Q 941 559 1184 500 
Q 1428 441 1663 441 
Q 2288 441 2617 861 
Q 2947 1281 2994 2138 
Q 2813 1869 2534 1725 
Q 2256 1581 1919 1581 
Q 1219 1581 811 2004 
Q 403 2428 403 3163 
Q 403 3881 828 4315 
Q 1253 4750 1959 4750 
Q 2769 4750 3195 4129 
Q 3622 3509 3622 2328 
Q 3622 1225 3098 567 
Q 2575 -91 1691 -91 
Q 1453 -91 1209 -44 
Q 966 3 703 97 
z
M 1959 2075 
Q 2384 2075 2632 2365 
Q 2881 2656 2881 3163 
Q 2881 3666 2632 3958 
Q 2384 4250 1959 4250 
Q 1534 4250 1286 3958 
Q 1038 3666 1038 3163 
Q 1038 2656 1286 2365 
Q 1534 2075 1959 2075 
z
" transform="scale(0.015625)"/>
       </defs>
       <use xlink:href="#DejaVuSans-30"/>
       <use xlink:href="#DejaVuSans-2e" x="63.623047"/>
       <use xlink:href="#DejaVuSans-39" x="95.410156"/>
       <use xlink:href="#DejaVuSans-4d" x="159.033203"/>
      </g>
     </g>
    </g>
    <g id="xtick_5">
     <g id="line2d_9">
      <path d="M 177.708289 358.6375 
L 177.708289 25.9975 
" clip-path="url(#p6bc31f8400)" style="fill: none; stroke-dasharray: 2.59,1.12; stroke-dashoffset: 0; stroke: #99aab9; stroke-width: 0.7"/>
     </g>
     <g id="line2d_10">
      <g>
       <use xlink:href="#mb5d26f465a" x="177.708289" y="358.6375" style="stroke: #000000; stroke-width: 0.8"/>
      </g>
     </g>
     <g id="text_5">
      <!-- 1.2M -->
      <g transform="translate(170.986355 388.35662) rotate(-45) scale(0.1 -0.1)">
       <defs>
        <path id="DejaVuSans-31" d="M 794 531 
L 1825 531 
L 1825 4091 
L 703 3866 
L 703 4441 
L 1819 4666 
L 2450 4666 
L 2450 531 
L 3481 531 
L 3481 0 
L 794 0 
L 794 531 
z
" transform="scale(0.015625)"/>
        <path id="DejaVuSans-32" d="M 1228 531 
L 3431 531 
L 3431 0 
L 469 0 
L 469 531 
Q 828 903 1448 1529 
Q 2069 2156 2228 2338 
Q 2531 2678 2651 2914 
Q 2772 3150 2772 3378 
Q 2772 3750 2511 3984 
Q 2250 4219 1831 4219 
Q 1534 4219 1204 4116 
Q 875 4013 500 3803 
L 500 4441 
Q 881 4594 1212 4672 
Q 1544 4750 1819 4750 
Q 2544 4750 2975 4387 
Q 3406 4025 3406 3419 
Q 3406 3131 3298 2873 
Q 3191 2616 2906 2266 
Q 2828 2175 2409 1742 
Q 1991 1309 1228 531 
z
" transform="scale(0.015625)"/>
       </defs>
       <use xlink:href="#DejaVuSans-31"/>
       <use xlink:href="#DejaVuSans-2e" x="63.623047"/>
       <use xlink:href="#DejaVuSans-32" x="95.410156"/>
       <use xlink:href="#DejaVuSans-4d" x="159.033203"/>
      </g>
     </g>
    </g>
    <g id="xtick_6">
     <g id="line2d_11">
      <path d="M 210.543738 358.6375 
L 210.543738 25.9975 
" clip-path="url(#p6bc31f8400)" style="fill: none; stroke-dasharray: 2.59,1.12; stroke-dashoffset: 0; stroke: #99aab9; stroke-width: 0.7"/>
     </g>
     <g id="line2d_12">
      <g>
       <use xlink:href="#mb5d26f465a" x="210.543738" y="358.6375" style="stroke: #000000; stroke-width: 0.8"/>
      </g>
     </g>
     <g id="text_6">
      <!-- 1.5M -->
      <g transform="translate(203.821805 388.35662) rotate(-45) scale(0.1 -0.1)">
       <defs>
        <path id="DejaVuSans-35" d="M 691 4666 
L 3169 4666 
L 3169 4134 
L 1269 4134 
L 1269 2991 
Q 1406 3038 1543 3061 
Q 1681 3084 1819 3084 
Q 2600 3084 3056 2656 
Q 3513 2228 3513 1497 
Q 3513 744 3044 326 
Q 2575 -91 1722 -91 
Q 1428 -91 1123 -41 
Q 819 9 494 109 
L 494 744 
Q 775 591 1075 516 
Q 1375 441 1709 441 
Q 2250 441 2565 725 
Q 2881 1009 2881 1497 
Q 2881 1984 2565 2268 
Q 2250 2553 1709 2553 
Q 1456 2553 1204 2497 
Q 953 2441 691 2322 
L 691 4666 
z
" transform="scale(0.015625)"/>
       </defs>
       <use xlink:href="#DejaVuSans-31"/>
       <use xlink:href="#DejaVuSans-2e" x="63.623047"/>
       <use xlink:href="#DejaVuSans-35" x="95.410156"/>
       <use xlink:href="#DejaVuSans-4d" x="159.033203"/>
      </g>
     </g>
    </g>
    <g id="xtick_7">
     <g id="line2d_13">
      <path d="M 243.379188 358.6375 
L 243.379188 25.9975 
" clip-path="url(#p6bc31f8400)" style="fill: none; stroke-dasharray: 2.59,1.12; stroke-dashoffset: 0; stroke: #99aab9; stroke-width: 0.7"/>
     </g>
     <g id="line2d_14">
      <g>
       <use xlink:href="#mb5d26f465a" x="243.379188" y="358.6375" style="stroke: #000000; stroke-width: 0.8"/>
      </g>
     </g>
     <g id="text_7">
      <!-- 1.8M -->
      <g transform="translate(236.657254 388.35662) rotate(-45) scale(0.1 -0.1)">
       <defs>
        <path id="DejaVuSans-38" d="M 2034 2216 
Q 1584 2216 1326 1975 
Q 1069 1734 1069 1313 
Q 1069 891 1326 650 
Q 1584 409 2034 409 
Q 2484 409 2743 651 
Q 3003 894 3003 1313 
Q 3003 1734 2745 1975 
Q 2488 2216 2034 2216 
z
M 1403 2484 
Q 997 2584 770 2862 
Q 544 3141 544 3541 
Q 544 4100 942 4425 
Q 1341 4750 2034 4750 
Q 2731 4750 3128 4425 
Q 3525 4100 3525 3541 
Q 3525 3141 3298 2862 
Q 3072 2584 2669 2484 
Q 3125 2378 3379 2068 
Q 3634 1759 3634 1313 
Q 3634 634 3220 271 
Q 2806 -91 2034 -91 
Q 1263 -91 848 271 
Q 434 634 434 1313 
Q 434 1759 690 2068 
Q 947 2378 1403 2484 
z
M 1172 3481 
Q 1172 3119 1398 2916 
Q 1625 2713 2034 2713 
Q 2441 2713 2670 2916 
Q 2900 3119 2900 3481 
Q 2900 3844 2670 4047 
Q 2441 4250 2034 4250 
Q 1625 4250 1398 4047 
Q 1172 3844 1172 3481 
z
" transform="scale(0.015625)"/>
       </defs>
       <use xlink:href="#DejaVuSans-31"/>
       <use xlink:href="#DejaVuSans-2e" x="63.623047"/>
       <use xlink:href="#DejaVuSans-38" x="95.410156"/>
       <use xlink:href="#DejaVuSans-4d" x="159.033203"/>
      </g>
     </g>
    </g>
    <g id="xtick_8">
     <g id="line2d_15">
      <path d="M 276.214637 358.6375 
L 276.214637 25.9975 
" clip-path="url(#p6bc31f8400)" style="fill: none; stroke-dasharray: 2.59,1.12; stroke-dashoffset: 0; stroke: #99aab9; stroke-width: 0.7"/>
     </g>
     <g id="line2d_16">
      <g>
       <use xlink:href="#mb5d26f465a" x="276.214637" y="358.6375" style="stroke: #000000; stroke-width: 0.8"/>
      </g>
     </g>
     <g id="text_8">
      <!-- 2.1M -->
      <g transform="translate(269.492703 388.35662) rotate(-45) scale(0.1 -0.1)">
       <use xlink:href="#DejaVuSans-32"/>
       <use xlink:href="#DejaVuSans-2e" x="63.623047"/>
       <use xlink:href="#DejaVuSans-31" x="95.410156"/>
       <use xlink:href="#DejaVuSans-4d" x="159.033203"/>
      </g>
     </g>
    </g>
    <g id="xtick_9">
     <g id="line2d_17">
      <path d="M 309.050087 358.6375 
L 309.050087 25.9975 
" clip-path="url(#p6bc31f8400)" style="fill: none; stroke-dasharray: 2.59,1.12; stroke-dashoffset: 0; stroke: #99aab9; stroke-width: 0.7"/>
     </g>
     <g id="line2d_18">
      <g>
       <use xlink:href="#mb5d26f465a" x="309.050087" y="358.6375" style="stroke: #000000; stroke-width: 0.8"/>
      </g>
     </g>
     <g id="text_9">
      <!-- 2.4M -->
      <g transform="translate(302.328153 388.35662) rotate(-45) scale(0.1 -0.1)">
       <defs>
        <path id="DejaVuSans-34" d="M 2419 4116 
L 825 1625 
L 2419 1625 
L 2419 4116 
z
M 2253 4666 
L 3047 4666 
L 3047 1625 
L 3713 1625 
L 3713 1100 
L 3047 1100 
L 3047 0 
L 2419 0 
L 2419 1100 
L 313 1100 
L 313 1709 
L 2253 4666 
z
" transform="scale(0.015625)"/>
       </defs>
       <use xlink:href="#DejaVuSans-32"/>
       <use xlink:href="#DejaVuSans-2e" x="63.623047"/>
       <use xlink:href="#DejaVuSans-34" x="95.410156"/>
       <use xlink:href="#DejaVuSans-4d" x="159.033203"/>
      </g>
     </g>
    </g>
    <g id="xtick_10">
     <g id="line2d_19">
      <path d="M 341.885536 358.6375 
L 341.885536 25.9975 
" clip-path="url(#p6bc31f8400)" style="fill: none; stroke-dasharray: 2.59,1.12; stroke-dashoffset: 0; stroke: #99aab9; stroke-width: 0.7"/>
     </g>
     <g id="line2d_20">
      <g>
       <use xlink:href="#mb5d26f465a" x="341.885536" y="358.6375" style="stroke: #000000; stroke-width: 0.8"/>
      </g>
     </g>
     <g id="text_10">
      <!-- 2.7M -->
      <g transform="translate(335.163602 388.35662) rotate(-45) scale(0.1 -0.1)">
       <defs>
        <path id="DejaVuSans-37" d="M 525 4666 
L 3525 4666 
L 3525 4397 
L 1831 0 
L 1172 0 
L 2766 4134 
L 525 4134 
L 525 4666 
z
" transform="scale(0.015625)"/>
       </defs>
       <use xlink:href="#DejaVuSans-32"/>
       <use xlink:href="#DejaVuSans-2e" x="63.623047"/>
       <use xlink:href="#DejaVuSans-37" x="95.410156"/>
       <use xlink:href="#DejaVuSans-4d" x="159.033203"/>
      </g>
     </g>
    </g>
    <g id="xtick_11">
     <g id="line2d_21">
      <path d="M 374.720986 358.6375 
L 374.720986 25.9975 
" clip-path="url(#p6bc31f8400)" style="fill: none; stroke-dasharray: 2.59,1.12; stroke-dashoffset: 0; stroke: #99aab9; stroke-width: 0.7"/>
     </g>
     <g id="line2d_22">
      <g>
       <use xlink:href="#mb5d26f465a" x="374.720986" y="358.6375" style="stroke: #000000; stroke-width: 0.8"/>
      </g>
     </g>
     <g id="text_11">
      <!-- 3.0M -->
      <g transform="translate(367.999052 388.35662) rotate(-45) scale(0.1 -0.1)">
       <use xlink:href="#DejaVuSans-33"/>
       <use xlink:href="#DejaVuSans-2e" x="63.623047"/>
       <use xlink:href="#DejaVuSans-30" x="95.410156"/>
       <use xlink:href="#DejaVuSans-4d" x="159.033203"/>
      </g>
     </g>
    </g>
    <g id="xtick_12">
     <g id="line2d_23">
      <path d="M 407.556435 358.6375 
L 407.556435 25.9975 
" clip-path="url(#p6bc31f8400)" style="fill: none; stroke-dasharray: 2.59,1.12; stroke-dashoffset: 0; stroke: #99aab9; stroke-width: 0.7"/>
     </g>
     <g id="line2d_24">
      <g>
       <use xlink:href="#mb5d26f465a" x="407.556435" y="358.6375" style="stroke: #000000; stroke-width: 0.8"/>
      </g>
     </g>
     <g id="text_12">
      <!-- 3.3M -->
      <g transform="translate(400.834501 388.35662) rotate(-45) scale(0.1 -0.1)">
       <use xlink:href="#DejaVuSans-33"/>
       <use xlink:href="#DejaVuSans-2e" x="63.623047"/>
       <use xlink:href="#DejaVuSans-33" x="95.410156"/>
       <use xlink:href="#DejaVuSans-4d" x="159.033203"/>
      </g>
     </g>
    </g>
    <g id="xtick_13">
     <g id="line2d_25">
      <path d="M 440.391884 358.6375 
L 440.391884 25.9975 
" clip-path="url(#p6bc31f8400)" style="fill: none; stroke-dasharray: 2.59,1.12; stroke-dashoffset: 0; stroke: #99aab9; stroke-width: 0.7"/>
     </g>
     <g id="line2d_26">
      <g>
       <use xlink:href="#mb5d26f465a" x="440.391884" y="358.6375" style="stroke: #000000; stroke-width: 0.8"/>
      </g>
     </g>
     <g id="text_13">
      <!-- 3.6M -->
      <g transform="translate(433.669951 388.35662) rotate(-45) scale(0.1 -0.1)">
       <use xlink:href="#DejaVuSans-33"/>
       <use xlink:href="#DejaVuSans-2e" x="63.623047"/>
       <use xlink:href="#DejaVuSans-36" x="95.410156"/>
       <use xlink:href="#DejaVuSans-4d" x="159.033203"/>
      </g>
     </g>
    </g>
    <g id="xtick_14">
     <g id="line2d_27">
      <path d="M 473.227334 358.6375 
L 473.227334 25.9975 
" clip-path="url(#p6bc31f8400)" style="fill: none; stroke-dasharray: 2.59,1.12; stroke-dashoffset: 0; stroke: #99aab9; stroke-width: 0.7"/>
     </g>
     <g id="line2d_28">
      <g>
       <use xlink:href="#mb5d26f465a" x="473.227334" y="358.6375" style="stroke: #000000; stroke-width: 0.8"/>
      </g>
     </g>
     <g id="text_14">
      <!-- 3.9M -->
      <g transform="translate(466.5054 388.35662) rotate(-45) scale(0.1 -0.1)">
       <use xlink:href="#DejaVuSans-33"/>
       <use xlink:href="#DejaVuSans-2e" x="63.623047"/>
       <use xlink:href="#DejaVuSans-39" x="95.410156"/>
       <use xlink:href="#DejaVuSans-4d" x="159.033203"/>
      </g>
     </g>
    </g>
    <g id="xtick_15">
     <g id="line2d_29">
      <path d="M 506.062783 358.6375 
L 506.062783 25.9975 
" clip-path="url(#p6bc31f8400)" style="fill: none; stroke-dasharray: 2.59,1.12; stroke-dashoffset: 0; stroke: #99aab9; stroke-width: 0.7"/>
     </g>
     <g id="line2d_30">
      <g>
       <use xlink:href="#mb5d26f465a" x="506.062783" y="358.6375" style="stroke: #000000; stroke-width: 0.8"/>
      </g>
     </g>
     <g id="text_15">
      <!-- 4.2M -->
      <g transform="translate(499.340849 388.35662) rotate(-45) scale(0.1 -0.1)">
       <use xlink:href="#DejaVuSans-34"/>
       <use xlink:href="#DejaVuSans-2e" x="63.623047"/>
       <use xlink:href="#DejaVuSans-32" x="95.410156"/>
       <use xlink:href="#DejaVuSans-4d" x="159.033203"/>
      </g>
     </g>
    </g>
    <g id="xtick_16">
     <g id="line2d_31">
      <path d="M 538.898233 358.6375 
L 538.898233 25.9975 
" clip-path="url(#p6bc31f8400)" style="fill: none; stroke-dasharray: 2.59,1.12; stroke-dashoffset: 0; stroke: #99aab9; stroke-width: 0.7"/>
     </g>
     <g id="line2d_32">
      <g>
       <use xlink:href="#mb5d26f465a" x="538.898233" y="358.6375" style="stroke: #000000; stroke-width: 0.8"/>
      </g>
     </g>
     <g id="text_16">
      <!-- 4.5M -->
      <g transform="translate(532.176299 388.35662) rotate(-45) scale(0.1 -0.1)">
       <use xlink:href="#DejaVuSans-34"/>
       <use xlink:href="#DejaVuSans-2e" x="63.623047"/>
       <use xlink:href="#DejaVuSans-35" x="95.410156"/>
       <use xlink:href="#DejaVuSans-4d" x="159.033203"/>
      </g>
     </g>
    </g>
    <g id="xtick_17">
     <g id="line2d_33">
      <path d="M 571.733682 358.6375 
L 571.733682 25.9975 
" clip-path="url(#p6bc31f8400)" style="fill: none; stroke-dasharray: 2.59,1.12; stroke-dashoffset: 0; stroke: #99aab9; stroke-width: 0.7"/>
     </g>
     <g id="line2d_34">
      <g>
       <use xlink:href="#mb5d26f465a" x="571.733682" y="358.6375" style="stroke: #000000; stroke-width: 0.8"/>
      </g>
     </g>
     <g id="text_17">
      <!-- 4.8M -->
      <g transform="translate(565.011748 388.35662) rotate(-45) scale(0.1 -0.1)">
       <use xlink:href="#DejaVuSans-34"/>
       <use xlink:href="#DejaVuSans-2e" x="63.623047"/>
       <use xlink:href="#DejaVuSans-38" x="95.410156"/>
       <use xlink:href="#DejaVuSans-4d" x="159.033203"/>
      </g>
     </g>
    </g>
    <g id="text_18">
     <!-- Négyzetméterár -->
     <g style="fill: #335574" transform="translate(276.2725 403.425306) scale(0.12 -0.12)">
      <defs>
       <path id="DejaVuSans-4e" d="M 628 4666 
L 1478 4666 
L 3547 763 
L 3547 4666 
L 4159 4666 
L 4159 0 
L 3309 0 
L 1241 3903 
L 1241 0 
L 628 0 
L 628 4666 
z
" transform="scale(0.015625)"/>
       <path id="DejaVuSans-e9" d="M 3597 1894 
L 3597 1613 
L 953 1613 
Q 991 1019 1311 708 
Q 1631 397 2203 397 
Q 2534 397 2845 478 
Q 3156 559 3463 722 
L 3463 178 
Q 3153 47 2828 -22 
Q 2503 -91 2169 -91 
Q 1331 -91 842 396 
Q 353 884 353 1716 
Q 353 2575 817 3079 
Q 1281 3584 2069 3584 
Q 2775 3584 3186 3129 
Q 3597 2675 3597 1894 
z
M 3022 2063 
Q 3016 2534 2758 2815 
Q 2500 3097 2075 3097 
Q 1594 3097 1305 2825 
Q 1016 2553 972 2059 
L 3022 2063 
z
M 2466 5119 
L 3088 5119 
L 2070 3944 
L 1591 3944 
L 2466 5119 
z
" transform="scale(0.015625)"/>
       <path id="DejaVuSans-67" d="M 2906 1791 
Q 2906 2416 2648 2759 
Q 2391 3103 1925 3103 
Q 1463 3103 1205 2759 
Q 947 2416 947 1791 
Q 947 1169 1205 825 
Q 1463 481 1925 481 
Q 2391 481 2648 825 
Q 2906 1169 2906 1791 
z
M 3481 434 
Q 3481 -459 3084 -895 
Q 2688 -1331 1869 -1331 
Q 1566 -1331 1297 -1286 
Q 1028 -1241 775 -1147 
L 775 -588 
Q 1028 -725 1275 -790 
Q 1522 -856 1778 -856 
Q 2344 -856 2625 -561 
Q 2906 -266 2906 331 
L 2906 616 
Q 2728 306 2450 153 
Q 2172 0 1784 0 
Q 1141 0 747 490 
Q 353 981 353 1791 
Q 353 2603 747 3093 
Q 1141 3584 1784 3584 
Q 2172 3584 2450 3431 
Q 2728 3278 2906 2969 
L 2906 3500 
L 3481 3500 
L 3481 434 
z
" transform="scale(0.015625)"/>
       <path id="DejaVuSans-79" d="M 2059 -325 
Q 1816 -950 1584 -1140 
Q 1353 -1331 966 -1331 
L 506 -1331 
L 506 -850 
L 844 -850 
Q 1081 -850 1212 -737 
Q 1344 -625 1503 -206 
L 1606 56 
L 191 3500 
L 800 3500 
L 1894 763 
L 2988 3500 
L 3597 3500 
L 2059 -325 
z
" transform="scale(0.015625)"/>
       <path id="DejaVuSans-7a" d="M 353 3500 
L 3084 3500 
L 3084 2975 
L 922 459 
L 3084 459 
L 3084 0 
L 275 0 
L 275 525 
L 2438 3041 
L 353 3041 
L 353 3500 
z
" transform="scale(0.015625)"/>
       <path id="DejaVuSans-65" d="M 3597 1894 
L 3597 1613 
L 953 1613 
Q 991 1019 1311 708 
Q 1631 397 2203 397 
Q 2534 397 2845 478 
Q 3156 559 3463 722 
L 3463 178 
Q 3153 47 2828 -22 
Q 2503 -91 2169 -91 
Q 1331 -91 842 396 
Q 353 884 353 1716 
Q 353 2575 817 3079 
Q 1281 3584 2069 3584 
Q 2775 3584 3186 3129 
Q 3597 2675 3597 1894 
z
M 3022 2063 
Q 3016 2534 2758 2815 
Q 2500 3097 2075 3097 
Q 1594 3097 1305 2825 
Q 1016 2553 972 2059 
L 3022 2063 
z
" transform="scale(0.015625)"/>
       <path id="DejaVuSans-74" d="M 1172 4494 
L 1172 3500 
L 2356 3500 
L 2356 3053 
L 1172 3053 
L 1172 1153 
Q 1172 725 1289 603 
Q 1406 481 1766 481 
L 2356 481 
L 2356 0 
L 1766 0 
Q 1100 0 847 248 
Q 594 497 594 1153 
L 594 3053 
L 172 3053 
L 172 3500 
L 594 3500 
L 594 4494 
L 1172 4494 
z
" transform="scale(0.015625)"/>
       <path id="DejaVuSans-6d" d="M 3328 2828 
Q 3544 3216 3844 3400 
Q 4144 3584 4550 3584 
Q 5097 3584 5394 3201 
Q 5691 2819 5691 2113 
L 5691 0 
L 5113 0 
L 5113 2094 
Q 5113 2597 4934 2840 
Q 4756 3084 4391 3084 
Q 3944 3084 3684 2787 
Q 3425 2491 3425 1978 
L 3425 0 
L 2847 0 
L 2847 2094 
Q 2847 2600 2669 2842 
Q 2491 3084 2119 3084 
Q 1678 3084 1418 2786 
Q 1159 2488 1159 1978 
L 1159 0 
L 581 0 
L 581 3500 
L 1159 3500 
L 1159 2956 
Q 1356 3278 1631 3431 
Q 1906 3584 2284 3584 
Q 2666 3584 2933 3390 
Q 3200 3197 3328 2828 
z
" transform="scale(0.015625)"/>
       <path id="DejaVuSans-72" d="M 2631 2963 
Q 2534 3019 2420 3045 
Q 2306 3072 2169 3072 
Q 1681 3072 1420 2755 
Q 1159 2438 1159 1844 
L 1159 0 
L 581 0 
L 581 3500 
L 1159 3500 
L 1159 2956 
Q 1341 3275 1631 3429 
Q 1922 3584 2338 3584 
Q 2397 3584 2469 3576 
Q 2541 3569 2628 3553 
L 2631 2963 
z
" transform="scale(0.015625)"/>
       <path id="DejaVuSans-e1" d="M 2194 1759 
Q 1497 1759 1228 1600 
Q 959 1441 959 1056 
Q 959 750 1161 570 
Q 1363 391 1709 391 
Q 2188 391 2477 730 
Q 2766 1069 2766 1631 
L 2766 1759 
L 2194 1759 
z
M 3341 1997 
L 3341 0 
L 2766 0 
L 2766 531 
Q 2569 213 2275 61 
Q 1981 -91 1556 -91 
Q 1019 -91 701 211 
Q 384 513 384 1019 
Q 384 1609 779 1909 
Q 1175 2209 1959 2209 
L 2766 2209 
L 2766 2266 
Q 2766 2663 2505 2880 
Q 2244 3097 1772 3097 
Q 1472 3097 1187 3025 
Q 903 2953 641 2809 
L 641 3341 
Q 956 3463 1253 3523 
Q 1550 3584 1831 3584 
Q 2591 3584 2966 3190 
Q 3341 2797 3341 1997 
z
M 2290 5119 
L 2912 5119 
L 1894 3944 
L 1415 3944 
L 2290 5119 
z
" transform="scale(0.015625)"/>
      </defs>
      <use xlink:href="#DejaVuSans-4e"/>
      <use xlink:href="#DejaVuSans-e9" x="74.804688"/>
      <use xlink:href="#DejaVuSans-67" x="136.328125"/>
      <use xlink:href="#DejaVuSans-79" x="199.804688"/>
      <use xlink:href="#DejaVuSans-7a" x="258.984375"/>
      <use xlink:href="#DejaVuSans-65" x="311.474609"/>
      <use xlink:href="#DejaVuSans-74" x="372.998047"/>
      <use xlink:href="#DejaVuSans-6d" x="412.207031"/>
      <use xlink:href="#DejaVuSans-e9" x="509.619141"/>
      <use xlink:href="#DejaVuSans-74" x="571.142578"/>
      <use xlink:href="#DejaVuSans-65" x="610.351562"/>
      <use xlink:href="#DejaVuSans-72" x="671.875"/>
      <use xlink:href="#DejaVuSans-e1" x="712.988281"/>
      <use xlink:href="#DejaVuSans-72" x="774.267578"/>
     </g>
    </g>
   </g>
   <g id="matplotlib.axis_2">
    <g id="ytick_1">
     <g id="line2d_35">
      <path d="M 46.196875 358.6375 
L 604.196875 358.6375 
" clip-path="url(#p6bc31f8400)" style="fill: none; stroke-dasharray: 2.59,1.12; stroke-dashoffset: 0; stroke: #99aab9; stroke-width: 0.7"/>
     </g>
     <g id="line2d_36">
      <defs>
       <path id="mbe80d11a0c" d="M 0 0 
L -3.5 0 
" style="stroke: #000000; stroke-width: 0.8"/>
      </defs>
      <g>
       <use xlink:href="#mbe80d11a0c" x="46.196875" y="358.6375" style="stroke: #000000; stroke-width: 0.8"/>
      </g>
     </g>
     <g id="text_19">
      <!-- 0.0 -->
      <g transform="translate(23.29375 362.436719) scale(0.1 -0.1)">
       <use xlink:href="#DejaVuSans-30"/>
       <use xlink:href="#DejaVuSans-2e" x="63.623047"/>
       <use xlink:href="#DejaVuSans-30" x="95.410156"/>
      </g>
     </g>
    </g>
    <g id="ytick_2">
     <g id="line2d_37">
      <path d="M 46.196875 306.954509 
L 604.196875 306.954509 
" clip-path="url(#p6bc31f8400)" style="fill: none; stroke-dasharray: 2.59,1.12; stroke-dashoffset: 0; stroke: #99aab9; stroke-width: 0.7"/>
     </g>
     <g id="line2d_38">
      <g>
       <use xlink:href="#mbe80d11a0c" x="46.196875" y="306.954509" style="stroke: #000000; stroke-width: 0.8"/>
      </g>
     </g>
     <g id="text_20">
      <!-- 0.2 -->
      <g transform="translate(23.29375 310.753728) scale(0.1 -0.1)">
       <use xlink:href="#DejaVuSans-30"/>
       <use xlink:href="#DejaVuSans-2e" x="63.623047"/>
       <use xlink:href="#DejaVuSans-32" x="95.410156"/>
      </g>
     </g>
    </g>
    <g id="ytick_3">
     <g id="line2d_39">
      <path d="M 46.196875 255.271518 
L 604.196875 255.271518 
" clip-path="url(#p6bc31f8400)" style="fill: none; stroke-dasharray: 2.59,1.12; stroke-dashoffset: 0; stroke: #99aab9; stroke-width: 0.7"/>
     </g>
     <g id="line2d_40">
      <g>
       <use xlink:href="#mbe80d11a0c" x="46.196875" y="255.271518" style="stroke: #000000; stroke-width: 0.8"/>
      </g>
     </g>
     <g id="text_21">
      <!-- 0.4 -->
      <g transform="translate(23.29375 259.070737) scale(0.1 -0.1)">
       <use xlink:href="#DejaVuSans-30"/>
       <use xlink:href="#DejaVuSans-2e" x="63.623047"/>
       <use xlink:href="#DejaVuSans-34" x="95.410156"/>
      </g>
     </g>
    </g>
    <g id="ytick_4">
     <g id="line2d_41">
      <path d="M 46.196875 203.588527 
L 604.196875 203.588527 
" clip-path="url(#p6bc31f8400)" style="fill: none; stroke-dasharray: 2.59,1.12; stroke-dashoffset: 0; stroke: #99aab9; stroke-width: 0.7"/>
     </g>
     <g id="line2d_42">
      <g>
       <use xlink:href="#mbe80d11a0c" x="46.196875" y="203.588527" style="stroke: #000000; stroke-width: 0.8"/>
      </g>
     </g>
     <g id="text_22">
      <!-- 0.6 -->
      <g transform="translate(23.29375 207.387745) scale(0.1 -0.1)">
       <use xlink:href="#DejaVuSans-30"/>
       <use xlink:href="#DejaVuSans-2e" x="63.623047"/>
       <use xlink:href="#DejaVuSans-36" x="95.410156"/>
      </g>
     </g>
    </g>
    <g id="ytick_5">
     <g id="line2d_43">
      <path d="M 46.196875 151.905536 
L 604.196875 151.905536 
" clip-path="url(#p6bc31f8400)" style="fill: none; stroke-dasharray: 2.59,1.12; stroke-dashoffset: 0; stroke: #99aab9; stroke-width: 0.7"/>
     </g>
     <g id="line2d_44">
      <g>
       <use xlink:href="#mbe80d11a0c" x="46.196875" y="151.905536" style="stroke: #000000; stroke-width: 0.8"/>
      </g>
     </g>
     <g id="text_23">
      <!-- 0.8 -->
      <g transform="translate(23.29375 155.704754) scale(0.1 -0.1)">
       <use xlink:href="#DejaVuSans-30"/>
       <use xlink:href="#DejaVuSans-2e" x="63.623047"/>
       <use xlink:href="#DejaVuSans-38" x="95.410156"/>
      </g>
     </g>
    </g>
    <g id="ytick_6">
     <g id="line2d_45">
      <path d="M 46.196875 100.222544 
L 604.196875 100.222544 
" clip-path="url(#p6bc31f8400)" style="fill: none; stroke-dasharray: 2.59,1.12; stroke-dashoffset: 0; stroke: #99aab9; stroke-width: 0.7"/>
     </g>
     <g id="line2d_46">
      <g>
       <use xlink:href="#mbe80d11a0c" x="46.196875" y="100.222544" style="stroke: #000000; stroke-width: 0.8"/>
      </g>
     </g>
     <g id="text_24">
      <!-- 1.0 -->
      <g transform="translate(23.29375 104.021763) scale(0.1 -0.1)">
       <use xlink:href="#DejaVuSans-31"/>
       <use xlink:href="#DejaVuSans-2e" x="63.623047"/>
       <use xlink:href="#DejaVuSans-30" x="95.410156"/>
      </g>
     </g>
    </g>
    <g id="ytick_7">
     <g id="line2d_47">
      <path d="M 46.196875 48.539553 
L 604.196875 48.539553 
" clip-path="url(#p6bc31f8400)" style="fill: none; stroke-dasharray: 2.59,1.12; stroke-dashoffset: 0; stroke: #99aab9; stroke-width: 0.7"/>
     </g>
     <g id="line2d_48">
      <g>
       <use xlink:href="#mbe80d11a0c" x="46.196875" y="48.539553" style="stroke: #000000; stroke-width: 0.8"/>
      </g>
     </g>
     <g id="text_25">
      <!-- 1.2 -->
      <g transform="translate(23.29375 52.338772) scale(0.1 -0.1)">
       <use xlink:href="#DejaVuSans-31"/>
       <use xlink:href="#DejaVuSans-2e" x="63.623047"/>
       <use xlink:href="#DejaVuSans-32" x="95.410156"/>
      </g>
     </g>
    </g>
    <g id="text_26">
     <!-- Gyakoriság -->
     <g style="fill: #335574" transform="translate(16.798125 225.867812) rotate(-90) scale(0.12 -0.12)">
      <defs>
       <path id="DejaVuSans-47" d="M 3809 666 
L 3809 1919 
L 2778 1919 
L 2778 2438 
L 4434 2438 
L 4434 434 
Q 4069 175 3628 42 
Q 3188 -91 2688 -91 
Q 1594 -91 976 548 
Q 359 1188 359 2328 
Q 359 3472 976 4111 
Q 1594 4750 2688 4750 
Q 3144 4750 3555 4637 
Q 3966 4525 4313 4306 
L 4313 3634 
Q 3963 3931 3569 4081 
Q 3175 4231 2741 4231 
Q 1884 4231 1454 3753 
Q 1025 3275 1025 2328 
Q 1025 1384 1454 906 
Q 1884 428 2741 428 
Q 3075 428 3337 486 
Q 3600 544 3809 666 
z
" transform="scale(0.015625)"/>
       <path id="DejaVuSans-61" d="M 2194 1759 
Q 1497 1759 1228 1600 
Q 959 1441 959 1056 
Q 959 750 1161 570 
Q 1363 391 1709 391 
Q 2188 391 2477 730 
Q 2766 1069 2766 1631 
L 2766 1759 
L 2194 1759 
z
M 3341 1997 
L 3341 0 
L 2766 0 
L 2766 531 
Q 2569 213 2275 61 
Q 1981 -91 1556 -91 
Q 1019 -91 701 211 
Q 384 513 384 1019 
Q 384 1609 779 1909 
Q 1175 2209 1959 2209 
L 2766 2209 
L 2766 2266 
Q 2766 2663 2505 2880 
Q 2244 3097 1772 3097 
Q 1472 3097 1187 3025 
Q 903 2953 641 2809 
L 641 3341 
Q 956 3463 1253 3523 
Q 1550 3584 1831 3584 
Q 2591 3584 2966 3190 
Q 3341 2797 3341 1997 
z
" transform="scale(0.015625)"/>
       <path id="DejaVuSans-6b" d="M 581 4863 
L 1159 4863 
L 1159 1991 
L 2875 3500 
L 3609 3500 
L 1753 1863 
L 3688 0 
L 2938 0 
L 1159 1709 
L 1159 0 
L 581 0 
L 581 4863 
z
" transform="scale(0.015625)"/>
       <path id="DejaVuSans-6f" d="M 1959 3097 
Q 1497 3097 1228 2736 
Q 959 2375 959 1747 
Q 959 1119 1226 758 
Q 1494 397 1959 397 
Q 2419 397 2687 759 
Q 2956 1122 2956 1747 
Q 2956 2369 2687 2733 
Q 2419 3097 1959 3097 
z
M 1959 3584 
Q 2709 3584 3137 3096 
Q 3566 2609 3566 1747 
Q 3566 888 3137 398 
Q 2709 -91 1959 -91 
Q 1206 -91 779 398 
Q 353 888 353 1747 
Q 353 2609 779 3096 
Q 1206 3584 1959 3584 
z
" transform="scale(0.015625)"/>
       <path id="DejaVuSans-69" d="M 603 3500 
L 1178 3500 
L 1178 0 
L 603 0 
L 603 3500 
z
M 603 4863 
L 1178 4863 
L 1178 4134 
L 603 4134 
L 603 4863 
z
" transform="scale(0.015625)"/>
       <path id="DejaVuSans-73" d="M 2834 3397 
L 2834 2853 
Q 2591 2978 2328 3040 
Q 2066 3103 1784 3103 
Q 1356 3103 1142 2972 
Q 928 2841 928 2578 
Q 928 2378 1081 2264 
Q 1234 2150 1697 2047 
L 1894 2003 
Q 2506 1872 2764 1633 
Q 3022 1394 3022 966 
Q 3022 478 2636 193 
Q 2250 -91 1575 -91 
Q 1294 -91 989 -36 
Q 684 19 347 128 
L 347 722 
Q 666 556 975 473 
Q 1284 391 1588 391 
Q 1994 391 2212 530 
Q 2431 669 2431 922 
Q 2431 1156 2273 1281 
Q 2116 1406 1581 1522 
L 1381 1569 
Q 847 1681 609 1914 
Q 372 2147 372 2553 
Q 372 3047 722 3315 
Q 1072 3584 1716 3584 
Q 2034 3584 2315 3537 
Q 2597 3491 2834 3397 
z
" transform="scale(0.015625)"/>
      </defs>
      <use xlink:href="#DejaVuSans-47"/>
      <use xlink:href="#DejaVuSans-79" x="77.490234"/>
      <use xlink:href="#DejaVuSans-61" x="136.669922"/>
      <use xlink:href="#DejaVuSans-6b" x="197.949219"/>
      <use xlink:href="#DejaVuSans-6f" x="252.234375"/>
      <use xlink:href="#DejaVuSans-72" x="313.416016"/>
      <use xlink:href="#DejaVuSans-69" x="354.529297"/>
      <use xlink:href="#DejaVuSans-73" x="382.3125"/>
      <use xlink:href="#DejaVuSans-e1" x="434.412109"/>
      <use xlink:href="#DejaVuSans-67" x="495.691406"/>
     </g>
    </g>
    <g id="text_27">
     <!-- 1e−6 -->
     <g transform="translate(46.196875 22.9975) scale(0.1 -0.1)">
      <defs>
       <path id="DejaVuSans-2212" d="M 678 2272 
L 4684 2272 
L 4684 1741 
L 678 1741 
L 678 2272 
z
" transform="scale(0.015625)"/>
      </defs>
      <use xlink:href="#DejaVuSans-31"/>
      <use xlink:href="#DejaVuSans-65" x="63.623047"/>
      <use xlink:href="#DejaVuSans-2212" x="125.146484"/>
      <use xlink:href="#DejaVuSans-36" x="208.935547"/>
     </g>
    </g>
   </g>
   <g id="line2d_49">
    <path d="M 71.560511 358.637268 
L 83.239463 358.542296 
L 86.793927 358.320121 
L 89.332829 357.970025 
L 91.363951 357.497423 
L 93.395073 356.778753 
L 94.918415 356.028596 
L 96.441756 355.053969 
L 97.965098 353.812643 
L 99.488439 352.260539 
L 101.011781 350.352865 
L 102.535122 348.045357 
L 104.058464 345.295588 
L 105.581805 342.064282 
L 107.105147 338.316579 
L 108.628488 334.0232 
L 110.15183 329.161464 
L 112.182952 321.769856 
L 114.214074 313.328098 
L 116.245196 303.849641 
L 118.276318 293.375302 
L 120.815221 278.986838 
L 123.354123 263.333909 
L 126.400806 243.215643 
L 130.970831 211.326347 
L 138.079758 161.502036 
L 141.634221 138.273671 
L 144.173124 122.924977 
L 146.712027 108.857914 
L 148.743149 98.64556 
L 150.774271 89.436448 
L 152.805393 81.28458 
L 154.836515 74.227698 
L 156.359856 69.667516 
L 157.883198 65.739932 
L 159.406539 62.444481 
L 160.929881 59.776624 
L 161.945442 58.342765 
L 162.961003 57.180904 
L 163.976564 56.287091 
L 164.992125 55.656788 
L 166.007686 55.284916 
L 167.023247 55.165897 
L 168.038808 55.293699 
L 169.054369 55.661882 
L 170.06993 56.263637 
L 171.085491 57.091833 
L 172.101052 58.139052 
L 173.624393 60.103731 
L 175.147735 62.517234 
L 176.671076 65.352093 
L 178.702199 69.738934 
L 180.733321 74.758053 
L 182.764443 80.342432 
L 185.303345 88.017029 
L 188.350028 98.078889 
L 191.904492 110.732048 
L 196.474516 127.982639 
L 205.614565 163.738513 
L 212.215712 189.031136 
L 216.785737 205.724296 
L 220.847981 219.812249 
L 224.910225 233.096623 
L 228.464688 244.01508 
L 232.019152 254.253077 
L 235.573615 263.804105 
L 239.128079 272.673124 
L 242.682542 280.874266 
L 245.729226 287.388208 
L 248.775909 293.443599 
L 251.822592 299.059211 
L 254.869275 304.255375 
L 257.915958 309.053453 
L 260.962641 313.47539 
L 264.009324 317.54334 
L 267.056007 321.27936 
L 270.10269 324.705158 
L 273.149373 327.841892 
L 276.703837 331.163326 
L 280.2583 334.150203 
L 283.812764 336.831919 
L 287.367227 339.236079 
L 290.921691 341.388451 
L 294.983935 343.570593 
L 299.046179 345.487848 
L 303.108423 347.170014 
L 307.678447 348.814877 
L 312.248472 350.230518 
L 317.326277 351.571365 
L 322.911863 352.805826 
L 329.005229 353.912196 
L 335.606375 354.87856 
L 343.223083 355.753384 
L 351.855352 356.503331 
L 361.503181 357.114399 
L 373.182133 357.625573 
L 387.907768 358.033223 
L 407.203427 358.329573 
L 435.639135 358.522793 
L 487.940528 358.618297 
L 578.833239 358.636535 
L 578.833239 358.636535 
" clip-path="url(#p6bc31f8400)" style="fill: none; stroke: #002b51; stroke-width: 2; stroke-linecap: square"/>
   </g>
   <g id="patch_33">
    <path d="M 46.196875 358.6375 
L 46.196875 25.9975 
" style="fill: none; stroke: #000000; stroke-width: 0.8; stroke-linejoin: miter; stroke-linecap: square"/>
   </g>
   <g id="patch_34">
    <path d="M 604.196875 358.6375 
L 604.196875 25.9975 
" style="fill: none; stroke: #000000; stroke-width: 0.8; stroke-linejoin: miter; stroke-linecap: square"/>
   </g>
   <g id="patch_35">
    <path d="M 46.196875 358.6375 
L 604.196875 358.6375 
" style="fill: none; stroke: #000000; stroke-width: 0.8; stroke-linejoin: miter; stroke-linecap: square"/>
   </g>
   <g id="patch_36">
    <path d="M 46.196875 25.9975 
L 604.196875 25.9975 
" style="fill: none; stroke: #000000; stroke-width: 0.8; stroke-linejoin: miter; stroke-linecap: square"/>
   </g>
   <g id="text_28">
    <!-- Négyzetméterár eloszlása -->
    <g style="fill: #002b51" transform="translate(220.820625 19.9975) scale(0.16 -0.16)">
     <defs>
      <path id="DejaVuSans-20" transform="scale(0.015625)"/>
      <path id="DejaVuSans-6c" d="M 603 4863 
L 1178 4863 
L 1178 0 
L 603 0 
L 603 4863 
z
" transform="scale(0.015625)"/>
     </defs>
     <use xlink:href="#DejaVuSans-4e"/>
     <use xlink:href="#DejaVuSans-e9" x="74.804688"/>
     <use xlink:href="#DejaVuSans-67" x="136.328125"/>
     <use xlink:href="#DejaVuSans-79" x="199.804688"/>
     <use xlink:href="#DejaVuSans-7a" x="258.984375"/>
     <use xlink:href="#DejaVuSans-65" x="311.474609"/>
     <use xlink:href="#DejaVuSans-74" x="372.998047"/>
     <use xlink:href="#DejaVuSans-6d" x="412.207031"/>
     <use xlink:href="#DejaVuSans-e9" x="509.619141"/>
     <use xlink:href="#DejaVuSans-74" x="571.142578"/>
     <use xlink:href="#DejaVuSans-65" x="610.351562"/>
     <use xlink:href="#DejaVuSans-72" x="671.875"/>
     <use xlink:href="#DejaVuSans-e1" x="712.988281"/>
     <use xlink:href="#DejaVuSans-72" x="774.267578"/>
     <use xlink:href="#DejaVuSans-20" x="815.380859"/>
     <use xlink:href="#DejaVuSans-65" x="847.167969"/>
     <use xlink:href="#DejaVuSans-6c" x="908.691406"/>
     <use xlink:href="#DejaVuSans-6f" x="936.474609"/>
     <use xlink:href="#DejaVuSans-73" x="997.65625"/>
     <use xlink:href="#DejaVuSans-7a" x="1049.755859"/>
     <use xlink:href="#DejaVuSans-6c" x="1102.246094"/>
     <use xlink:href="#DejaVuSans-e1" x="1130.029297"/>
     <use xlink:href="#DejaVuSans-73" x="1191.308594"/>
     <use xlink:href="#DejaVuSans-61" x="1243.408203"/>
    </g>
   </g>
   <g id="legend_1">
    <g id="patch_37">
     <path d="M 372.901562 49.075625 
L 597.196875 49.075625 
Q 599.196875 49.075625 599.196875 47.075625 
L 599.196875 32.9975 
Q 599.196875 30.9975 597.196875 30.9975 
L 372.901562 30.9975 
Q 370.901562 30.9975 370.901562 32.9975 
L 370.901562 47.075625 
Q 370.901562 49.075625 372.901562 49.075625 
z
" style="fill: #ffffff; opacity: 0.8; stroke: #cccccc; stroke-linejoin: miter"/>
    </g>
    <g id="line2d_50">
     <path d="M 374.901562 39.495938 
L 384.901562 39.495938 
L 394.901562 39.495938 
" style="fill: none; stroke: #002b51; stroke-width: 2; stroke-linecap: square"/>
    </g>
    <g id="text_29">
     <!-- Lognormális eloszlás (p-érték: 0.0035) -->
     <g transform="translate(402.901562 42.995938) scale(0.1 -0.1)">
      <defs>
       <path id="DejaVuSans-4c" d="M 628 4666 
L 1259 4666 
L 1259 531 
L 3531 531 
L 3531 0 
L 628 0 
L 628 4666 
z
" transform="scale(0.015625)"/>
       <path id="DejaVuSans-6e" d="M 3513 2113 
L 3513 0 
L 2938 0 
L 2938 2094 
Q 2938 2591 2744 2837 
Q 2550 3084 2163 3084 
Q 1697 3084 1428 2787 
Q 1159 2491 1159 1978 
L 1159 0 
L 581 0 
L 581 3500 
L 1159 3500 
L 1159 2956 
Q 1366 3272 1645 3428 
Q 1925 3584 2291 3584 
Q 2894 3584 3203 3211 
Q 3513 2838 3513 2113 
z
" transform="scale(0.015625)"/>
       <path id="DejaVuSans-28" d="M 1984 4856 
Q 1566 4138 1362 3434 
Q 1159 2731 1159 2009 
Q 1159 1288 1364 580 
Q 1569 -128 1984 -844 
L 1484 -844 
Q 1016 -109 783 600 
Q 550 1309 550 2009 
Q 550 2706 781 3412 
Q 1013 4119 1484 4856 
L 1984 4856 
z
" transform="scale(0.015625)"/>
       <path id="DejaVuSans-70" d="M 1159 525 
L 1159 -1331 
L 581 -1331 
L 581 3500 
L 1159 3500 
L 1159 2969 
Q 1341 3281 1617 3432 
Q 1894 3584 2278 3584 
Q 2916 3584 3314 3078 
Q 3713 2572 3713 1747 
Q 3713 922 3314 415 
Q 2916 -91 2278 -91 
Q 1894 -91 1617 61 
Q 1341 213 1159 525 
z
M 3116 1747 
Q 3116 2381 2855 2742 
Q 2594 3103 2138 3103 
Q 1681 3103 1420 2742 
Q 1159 2381 1159 1747 
Q 1159 1113 1420 752 
Q 1681 391 2138 391 
Q 2594 391 2855 752 
Q 3116 1113 3116 1747 
z
" transform="scale(0.015625)"/>
       <path id="DejaVuSans-2d" d="M 313 2009 
L 1997 2009 
L 1997 1497 
L 313 1497 
L 313 2009 
z
" transform="scale(0.015625)"/>
       <path id="DejaVuSans-3a" d="M 750 794 
L 1409 794 
L 1409 0 
L 750 0 
L 750 794 
z
M 750 3309 
L 1409 3309 
L 1409 2516 
L 750 2516 
L 750 3309 
z
" transform="scale(0.015625)"/>
       <path id="DejaVuSans-29" d="M 513 4856 
L 1013 4856 
Q 1481 4119 1714 3412 
Q 1947 2706 1947 2009 
Q 1947 1309 1714 600 
Q 1481 -109 1013 -844 
L 513 -844 
Q 928 -128 1133 580 
Q 1338 1288 1338 2009 
Q 1338 2731 1133 3434 
Q 928 4138 513 4856 
z
" transform="scale(0.015625)"/>
      </defs>
      <use xlink:href="#DejaVuSans-4c"/>
      <use xlink:href="#DejaVuSans-6f" x="53.962891"/>
      <use xlink:href="#DejaVuSans-67" x="115.144531"/>
      <use xlink:href="#DejaVuSans-6e" x="178.621094"/>
      <use xlink:href="#DejaVuSans-6f" x="242"/>
      <use xlink:href="#DejaVuSans-72" x="303.181641"/>
      <use xlink:href="#DejaVuSans-6d" x="342.544922"/>
      <use xlink:href="#DejaVuSans-e1" x="439.957031"/>
      <use xlink:href="#DejaVuSans-6c" x="501.236328"/>
      <use xlink:href="#DejaVuSans-69" x="529.019531"/>
      <use xlink:href="#DejaVuSans-73" x="556.802734"/>
      <use xlink:href="#DejaVuSans-20" x="608.902344"/>
      <use xlink:href="#DejaVuSans-65" x="640.689453"/>
      <use xlink:href="#DejaVuSans-6c" x="702.212891"/>
      <use xlink:href="#DejaVuSans-6f" x="729.996094"/>
      <use xlink:href="#DejaVuSans-73" x="791.177734"/>
      <use xlink:href="#DejaVuSans-7a" x="843.277344"/>
      <use xlink:href="#DejaVuSans-6c" x="895.767578"/>
      <use xlink:href="#DejaVuSans-e1" x="923.550781"/>
      <use xlink:href="#DejaVuSans-73" x="984.830078"/>
      <use xlink:href="#DejaVuSans-20" x="1036.929688"/>
      <use xlink:href="#DejaVuSans-28" x="1068.716797"/>
      <use xlink:href="#DejaVuSans-70" x="1107.730469"/>
      <use xlink:href="#DejaVuSans-2d" x="1171.207031"/>
      <use xlink:href="#DejaVuSans-e9" x="1207.291016"/>
      <use xlink:href="#DejaVuSans-72" x="1268.814453"/>
      <use xlink:href="#DejaVuSans-74" x="1309.927734"/>
      <use xlink:href="#DejaVuSans-e9" x="1349.136719"/>
      <use xlink:href="#DejaVuSans-6b" x="1410.660156"/>
      <use xlink:href="#DejaVuSans-3a" x="1468.570312"/>
      <use xlink:href="#DejaVuSans-20" x="1502.261719"/>
      <use xlink:href="#DejaVuSans-30" x="1534.048828"/>
      <use xlink:href="#DejaVuSans-2e" x="1597.671875"/>
      <use xlink:href="#DejaVuSans-30" x="1629.458984"/>
      <use xlink:href="#DejaVuSans-30" x="1693.082031"/>
      <use xlink:href="#DejaVuSans-33" x="1756.705078"/>
      <use xlink:href="#DejaVuSans-35" x="1820.328125"/>
      <use xlink:href="#DejaVuSans-29" x="1883.951172"/>
     </g>
    </g>
   </g>
  </g>
 </g>
 <defs>
  <clipPath id="p6bc31f8400">
   <rect x="46.196875" y="25.9975" width="558" height="332.64"/>
  </clipPath>
 </defs>
</svg>
