<svg xmlns="http://www.w3.org/2000/svg" xmlns:xlink="http://www.w3.org/1999/xlink" version="1.1" width="595.276" height="841.89" viewBox="0 0 595.276 841.89">
<text xml:space="preserve" transform="matrix(1 0 -0 1 0 841.89)" font-size="14.3462" font-family="SFRB1440" font-weight="bold"><tspan y="-802.584" x="257.505 267.2604 273.94575 277.76185 281.57795 288.82276 298.76469 307.14286 313.8282 320.32704 327.01237 332.3635">B&#x00e1;lintTak&#x00e1;ts</tspan></text>
<text xml:space="preserve" transform="matrix(1 0 -0 1 0 841.89)" font-size="9.9626" font-family="FontAwesome5Free"><tspan y="-783.36599" x="82.52501">&#xfffd;</tspan></text>
<text xml:space="preserve" transform="matrix(1 0 -0 1 0 841.89)" font-size="9.9626" font-family="SFRM1000"><tspan y="-783.36599" x="95.80801 103.55891 108.54021 113.52151 116.83905 120.7145 125.6958 130.6771 137.8701 142.8514 147.83269 156.13153 161.11283 169.41167 174.39296">+36-(70)3343947</tspan></text>
<text xml:space="preserve" transform="matrix(1 0 -0 1 0 841.89)" font-size="10.9091" font-family="SFRM1095"><tspan y="-783.36599" x="186.59702">&#x2022;</tspan></text>
<text xml:space="preserve" transform="matrix(1 0 -0 1 0 841.89)" font-size="9.9626" font-family="FontAwesome5Free"><tspan y="-783.36599" x="195.63701">&#xfffd;</tspan></text>
<text xml:space="preserve" transform="matrix(1 0 -0 1 0 841.89)" font-size="9.9626" font-family="SFRM1000"><tspan y="-783.36599" x="208.92002 212.79547 217.77677 222.47911 227.4604 231.33586 235.26113 238.03073 243.55997 248.54126 251.31087 254.08048 259.34074 263.2162 268.19749 275.9484 280.9297 289.22856 294.20985 296.97944 299.74903 302.51863 306.94203 311.9233">takats.balint1@gmail.com</tspan></text>
<text xml:space="preserve" transform="matrix(1 0 -0 1 0 841.89)" font-size="10.9091" font-family="SFRM1095"><tspan y="-783.36599" x="327.432">&#x2022;</tspan></text>
<text xml:space="preserve" transform="matrix(1 0 -0 1 0 841.89)" font-size="9.9626" font-family="FontAwesome5Brands"><tspan y="-783.36599" x="336.47203">&#xfffd;</tspan></text>
<text xml:space="preserve" transform="matrix(1 0 -0 1 0 841.89)" font-size="9.9626" font-family="SFRM1000"><tspan y="-783.36599" x="349.436 357.25666 360.02626 363.9017 371.37367 376.9029 385.74967 392.52424 396.42958 401.41087 404.17549 406.9401 409.7097">GitHubProfile</tspan></text>
<text xml:space="preserve" transform="matrix(1 0 -0 1 0 841.89)" font-size="10.9091" font-family="SFRM1095"><tspan y="-783.36599" x="421.37">&#x2022;</tspan></text>
<text xml:space="preserve" transform="matrix(1 0 -0 1 0 841.89)" font-size="9.9626" font-family="FontAwesome5Brands"><tspan y="-783.36599" x="430.411">&#xfffd;</tspan></text>
<text xml:space="preserve" transform="matrix(1 0 -0 1 0 841.89)" font-size="9.9626" font-family="SFRM1000"><tspan y="-783.36599" x="442.448 448.67463 451.4442 456.97346 461.95475 466.37815 471.90739 475.50389 484.36064 491.1352 495.04054 500.02183 502.78645 505.55107 508.32066">LinkedInProfile</tspan></text>
<text xml:space="preserve" transform="matrix(1 0 -0 1 0 841.89)" font-size="11.9552" font-family="SFXC1200" font-weight="bold"><tspan y="-757.021" x="39.684999 49.117654 57.34283 65.651699 73.39867 80.36855 87.74491 91.84554 99.819667">Education</tspan></text>
<path transform="matrix(1,0,0,-1,39.685,89.252017)" stroke-width=".398" stroke-linecap="butt" stroke-miterlimit="10" stroke-linejoin="miter" fill="none" stroke="#000000" d="M0 0H515.906"/>
<text xml:space="preserve" transform="matrix(1 0 -0 1 0 841.89)" font-size="5.9776" font-family="LMMathSymbols6" font-style="italic"><tspan y="-739.01" x="39.685">&#x2022;</tspan></text>
<text xml:space="preserve" transform="matrix(1 0 -0 1 0 841.89)" font-size="10.9091" font-family="SFRB1095" font-weight="bold"><tspan y="-737.70706" x="49.481004 57.182828 63.20465 69.22647 74.49557 80.811939 85.85194 90.1283 97.97195 106.3065 112.32832 115.33923 120.761058 125.801059 130.4156 134.69197 137.70288 141.61925 150.96836 156.39019 163.31746 169.93929 174.9793 179.49567 185.51749 191.5393 196.96114 199.97205 205.39388 210.8157 220.1539 225.42299 231.44481 241.08846 248.19028 253.0121 258.42304 264.44486 269.86668 278.8994 281.91035 286.73216">BudapestUniversityofTechnologyandEconomics</tspan></text>
<text xml:space="preserve" transform="matrix(1 0 -0 1 0 841.89)" font-size="8.9664" font-family="SFTI0900" font-style="italic"><tspan y="-737.70706" x="494.398 499.10539 503.81275 508.5201 516.5181 523.0994 527.80679 532.5141 537.22146">2022-2024</tspan><tspan y="-724.158" x="49.481019 57.730108 62.90372 67.135868 73.25095 79.83229 84.53965 92.06246 96.76982 101.710308 104.767848 108.999988 116.17311 121.346729 125.578868 128.40328 132.63542 137.80904 141.57494 145.80709 151.92217 159.04149 162.45769 167.16506 171.87242 176.81291 181.52028 184.57782 188.33475 196.33278 202.44786 205.27228 208.32982 216.33683 223.16922 226.00261 230.23476 238.23279 245.07416 249.78153 254.95514 259.6625 263.54496">MSc,ComputerScience,GraduatedwithHighHonors</tspan></text>
<text xml:space="preserve" transform="matrix(1 0 -0 1 0 841.89)" font-size="8.9664" font-family="SFRM0900"><tspan y="-724.158" x="517.52 522.1287 524.68417 529.29287 533.90158 538.51028">4.73/5</tspan></text>
<text xml:space="preserve" transform="matrix(1 0 -0 1 0 841.89)" font-size="5.9776" font-family="LMMathSymbols6" font-style="italic"><tspan y="-707.456" x="39.685029">&#x2022;</tspan></text>
<text xml:space="preserve" transform="matrix(1 0 -0 1 0 841.89)" font-size="10.9091" font-family="SFRB1095" font-weight="bold"><tspan y="-706.154" x="49.481027 57.81558 63.837404 66.84831 72.270137 77.310138 81.92468 86.20105 89.21196 93.13924 102.477428 107.89925 114.82652 121.44835 128.98654 134.02655 139.74292 143.96474">UniversityofTwente</tspan></text>
<text xml:space="preserve" transform="matrix(1 0 -0 1 0 841.89)" font-size="8.9664" font-family="SFTI0900" font-style="italic"><tspan y="-706.154" x="523.08908 527.7964 532.5037 537.21109">2021</tspan><tspan y="-692.605" x="49.48105 55.95479 61.128404 65.36054 71.47563 78.05697 82.76433 90.28714 94.9945 99.93498 102.99252 107.22466 114.39779 119.5714 123.80354 126.62796 130.8601 136.03372 139.79962 144.03177 150.14685 155.32047 160.02783 163.91028 166.7347 171.90831 179.43112 184.60474 188.83689 196.3597 200.59185 204.35773 207.41527 211.64742">BSc,ComputerScience,SpringSemester</tspan></text>
<text xml:space="preserve" transform="matrix(1 0 -0 1 0 841.89)" font-size="8.9664" font-family="SFRM0900"><tspan y="-692.605" x="417.92805 424.19557 430.97416 437.88725 443.00706 451.4534 458.3665 466.56178 472.82929 477.6891 481.5267 486.6465 491.25526 496.37507 500.9838 508.15693 514.42446 518.02896 522.63766 527.23739 530.8508 535.45059">ERASMUSExchangeProgram</tspan></text>
<text xml:space="preserve" transform="matrix(1 0 -0 1 0 841.89)" font-size="5.9776" font-family="LMMathSymbols6" font-style="italic"><tspan y="-675.902" x="39.685029">&#x2022;</tspan></text>
<text xml:space="preserve" transform="matrix(1 0 -0 1 0 841.89)" font-size="10.9091" font-family="SFRB1095" font-weight="bold"><tspan y="-674.6" x="49.481027 57.18285 63.204675 69.226497 74.49559 80.81196 85.85196 90.12833 97.97197 106.30652 112.32834 115.33925 120.76107 125.80107 130.41562 134.69199 137.7029 141.61927 150.96837 156.3902 163.31748 169.9393 174.97931 179.49568 185.5175 191.53932 196.96115 199.97206 205.39389 210.81572 220.15392 225.423 231.44483 241.08847 248.19029 253.01212 258.42304 264.44486 269.86668 278.8994 281.91035 286.73216">BudapestUniversityofTechnologyandEconomics</tspan></text>
<text xml:space="preserve" transform="matrix(1 0 -0 1 0 841.89)" font-size="8.9664" font-family="SFTI0900" font-style="italic"><tspan y="-674.6" x="494.398 499.10539 503.81275 508.5201 516.5181 523.0994 527.80679 532.5141 537.22146">2018-2022</tspan><tspan y="-661.05099" x="49.481019 55.954759 61.128374 65.36051 71.4756 78.05694 82.7643 90.28711 94.99447 99.93495 102.99249 107.22463 114.39776 119.57137 123.80351 126.62793 130.86008 136.03369 139.79959 144.03174 150.14682 157.26615 160.68235 165.38971 170.09708 175.03757 179.74494 182.80248 186.5594 194.55744 200.67252 203.49694 206.55448 214.5525 221.39388 224.21829 228.45044 236.45745 243.29882 248.00618 253.1798 257.87818 261.76063">BSc,ComputerScience,GraduatedwithHighHonors</tspan></text>
<text xml:space="preserve" transform="matrix(1 0 -0 1 0 841.89)" font-size="8.9664" font-family="SFRM0900"><tspan y="-661.05099" x="517.52 522.1287 524.68417 529.29287 533.90158 538.51028">4.91/5</tspan></text>
<text xml:space="preserve" transform="matrix(1 0 -0 1 0 841.89)" font-size="5.9776" font-family="LMMathSymbols6" font-style="italic"><tspan y="-644.34799" x="39.685029">&#x2022;</tspan></text>
<text xml:space="preserve" transform="matrix(1 0 -0 1 0 841.89)" font-size="10.9091" font-family="SFRB1095" font-weight="bold"><tspan y="-643.04598" x="49.481027 56.58285 62.17922 69.7065 80.41923 88.121059 93.54288 96.55379 101.98652 107.255619 113.87743 122.364719 125.375629 130.79746 140.43019 146.45201 150.9793 156.9902 162.71749 168.13932">ELTEBolyaiHighSchool</tspan></text>
<text xml:space="preserve" transform="matrix(1 0 -0 1 0 841.89)" font-size="8.9664" font-family="SFTI0900" font-style="italic"><tspan y="-643.04598" x="494.398 499.10539 503.81275 508.5201 516.5181 523.0994 527.80679 532.5141 537.22146">2006-2018</tspan><tspan y="-629.49697" x="49.481019 56.32238 59.146799 63.378938 71.37697 76.55058 80.78272 85.49008 89.731189 94.438549 96.78774 102.90283 110.022159 113.42939 118.13675 122.84411 127.78459 132.49196 135.5495 139.3154 147.31343 153.42852 156.25293 159.31047 167.3085 172.01587 174.84029 178.60617 181.66371 184.48813 189.66175 193.89389 196.95143 199.77585 204.48322 212.9475 215.77191 224.24517 228.95253 231.76798 237.40784 239.99465 242.58145 246.8136 254.33641 258.1023 263.0428 267.27494 270.1083 273.86524 278.09739 281.15495">HighSchool,Graduatedwithdistinctioninallfivesubjects</tspan></text>
<text xml:space="preserve" transform="matrix(1 0 -0 1 0 841.89)" font-size="8.9664" font-family="SFRM0900"><tspan y="-629.49697" x="517.52 522.1287 524.68417 529.29287 533.90158 538.51028">5.00/5</tspan></text>
<text xml:space="preserve" transform="matrix(1 0 -0 1 0 841.89)" font-size="11.9552" font-family="SFXC1200" font-weight="bold"><tspan y="-607.40896" x="39.685029 49.117685 57.24722 64.587718 71.56955 79.62736 83.72799 90.70982 99.19801 106.944988">Experience</tspan></text>
<path transform="matrix(1,0,0,-1,39.685,238.86402)" stroke-width=".398" stroke-linecap="butt" stroke-miterlimit="10" stroke-linejoin="miter" fill="none" stroke="#000000" d="M0 0H515.906"/>
<text xml:space="preserve" transform="matrix(1 0 -0 1 0 841.89)" font-size="5.9776" font-family="LMMathSymbols6" font-style="italic"><tspan y="-589.398" x="39.685">&#x2022;</tspan></text>
<text xml:space="preserve" transform="matrix(1 0 -0 1 0 841.89)" font-size="10.9091" font-family="SFRB1095" font-weight="bold"><tspan y="-588.09506" x="49.481004 59.779195 65.20102 69.81557 75.23739 80.506488 90.13921 96.16103 100.38286 105.651958 111.673778 114.684688 119.724689">MorganStanley</tspan></text>
<text xml:space="preserve" transform="matrix(1 0 -0 1 0 841.89)" font-size="8.9664" font-family="SFTI0900" font-style="italic"><tspan y="-588.09506" x="483.46199 488.16935 492.8767 497.58409 505.58213 512.16348 518.40408 521.82028 526.05239 529.81826 534.05038 539.22396">2022-Present</tspan><tspan y="-574.546" x="49.480989 56.537546 61.47803 66.185398 71.35901 74.41655 77.24097 80.29851 85.00587 88.06341 90.887828 95.119968 102.64278 107.81639 110.87393 114.29013 118.99749 122.05503 125.81195 130.0441 132.86852 136.6344 142.9826 146.5333 151.70691 154.76445 158.9966 162.87905">QuantitativeStrategistIntern</tspan></text>
<text xml:space="preserve" transform="matrix(1 0 -0 1 0 841.89)" font-size="8.9664" font-family="SFRM0900"><tspan y="-574.546" x="464.598 471.12553 476.24534 481.36515 485.97389 491.35374 495.4514 499.08277 502.6693 508.29124 515.20437 520.32418 525.444 530.0527 534.6614 538.26589">Budapest,Hungary</tspan></text>
<text xml:space="preserve" transform="matrix(1 0 -0 1 0 841.89)" font-size="9.9626" font-family="LMRoman10" font-weight="bold"><tspan y="-562.01107" x="48.461">&#x2013;</tspan></text>
<text xml:space="preserve" transform="matrix(1 0 -0 1 0 841.89)" font-size="9.9626" font-family="SFRM1000"><tspan y="-562.01107" x="57.591 63.269685 68.51997 72.95333 78.482578 82.40784 86.83123 95.67802 100.65932 109.5061 113.431369 117.306819 122.56707 126.71151 132.24076 137.22205 141.14731 145.02277 147.79238 155.54329 158.3129 163.56319 167.98659 172.96788 179.065 184.04631 189.0276 191.79721 196.7785 200.65396 203.42357 206.19318 208.96279 212.5593 221.1371 229.43595 234.69618 240.22542 244.64882 250.73598 255.15938 260.1407 262.91029 265.67988 271.2091 275.11445 280.09574 283.9712 286.74079 291.72209 300.57884 306.10807 310.03334 312.80293 318.33216 326.63099 332.16023 336.58363 342.11286 346.0182 350.99949 357.0866 362.61585 367.03926 370.63575 377.55976 382.54106 386.44639 391.70664">Focusedonstochasticlocalvolatilitymodelcalibrationusingneuralnetworks</tspan></text>
<text xml:space="preserve" transform="matrix(1 0 -0 1 0 841.89)" font-size="9.9626" font-family="LMRoman10" font-weight="bold"><tspan y="-550.056" x="48.461">&#x2013;</tspan></text>
<text xml:space="preserve" transform="matrix(1 0 -0 1 0 841.89)" font-size="9.9626" font-family="SFRM1000"><tspan y="-550.056" x="57.591 66.71674 75.29454 79.19988 83.623279 87.54854 91.97193 96.95323 100.858577 105.01298 113.859767 118.28316 123.54341 129.07265 131.84226 136.82355 140.72888 145.15229 153.99907 160.91312 165.62541 170.88567 178.12848 182.00394 190.30278 194.72618 200.25542 205.78466 210.76595 216.29518 220.71858 228.4695 232.34496 237.87419 245.61515 249.5404 255.34859 259.77198 264.19538 269.7246 275.81175 280.79304 285.21644 289.63984 295.16908 299.0744 304.0557 308.4791 312.91246 318.99958 323.98088 329.5101 338.35688 343.8861 348.8674 352.74287 361.0417 366.58088 371.00428 375.42768 380.9569 388.1997 393.181 399.5471 403.42256 408.95179 416.69273 420.61799 425.87825 429.8035 433.67897 438.1123">Myresearchexploredwaystoenhancethespeed,accuracy,anddataneedsofthesystem</tspan></text>
<text xml:space="preserve" transform="matrix(1 0 -0 1 0 841.89)" font-size="9.9626" font-family="LMRoman10" font-weight="bold"><tspan y="-538.101" x="48.461">&#x2013;</tspan></text>
<text xml:space="preserve" transform="matrix(1 0 -0 1 0 841.89)" font-size="9.9626" font-family="SFRM1000"><tspan y="-538.101" x="57.591 65.411647 70.392948 73.162548 78.69179 83.11518 91.96197 94.73157 100.26081 104.18607 106.95567 111.93697 117.19723 121.07268 128.31549 131.0851 136.33539 140.21085 148.50969 152.44492 156.32038 161.57067 165.72507 171.2543 176.2356 180.16086 184.03632 186.80593 194.54688 200.07611 203.98145 209.24169 213.66509 218.08849 222.01375 225.93901 230.36241 237.60523 242.58652 248.11576 256.96253 260.83799 266.36723 274.11814 278.54154 283.52284 291.8217 297.35093 300.1205 304.5439 309.80418 312.57377 316.44923 319.2188 323.6422 330.885 335.8663 342.2324 347.21369 352.74293 356.61839 359.38798 364.36927 373.226 378.75526 382.66059 385.43019 389.85359 392.62318 398.1524">Gainedinsightsintostochasticprocessesandthecomplexitiesofoptionpricing</tspan></text>
<text xml:space="preserve" transform="matrix(1 0 -0 1 0 841.89)" font-size="9.9626" font-family="LMRoman10" font-weight="bold"><tspan y="-526.145" x="48.461">&#x2013;</tspan></text>
<text xml:space="preserve" transform="matrix(1 0 -0 1 0 841.89)" font-size="9.9626" font-family="SFRM1000"><tspan y="-526.145" x="57.591 64.50504 67.27464 71.69804 76.67934 80.58468 86.11392 90.537319 99.394069 104.37537 110.1736 115.1549 120.68414 127.8871 132.3105 137.2918 145.59064 151.11988 156.10117 161.35146 169.92926 175.4585 179.36383 184.62407 189.04747 193.47087 197.39614 201.3214 205.7448 212.98761 217.9689 223.49814 232.35489 237.33618 242.86542 247.56777 252.54906 258.0783 262.5017 266.9251 275.77189 281.30113 286.2824 290.15788 298.46669 303.44798 308.9772 313.9585 316.7281 321.98835 325.9136 328.6832">Ilearnedaboutcompanyprocessesandadvanceddataanalysis</tspan></text>
<text xml:space="preserve" transform="matrix(1 0 -0 1 0 841.89)" font-size="5.9776" font-family="LMMathSymbols6" font-style="italic"><tspan y="-509.14604" x="39.684999">&#x2022;</tspan></text>
<text xml:space="preserve" transform="matrix(1 0 -0 1 0 841.89)" font-size="10.9091" font-family="SFRB1095" font-weight="bold"><tspan y="-507.84403" x="49.480997 57.357366 63.37919 69.40101 74.52828 80.25556 86.27738 98.92103 107.40831 113.43013 119.45195 124.87377 130.14287 134.75742 144.09561 152.58289 155.89925 160.12107">AdnovumHungaryKft.</tspan></text>
<text xml:space="preserve" transform="matrix(1 0 -0 1 0 841.89)" font-size="8.9664" font-family="SFTI0900" font-style="italic"><tspan y="-507.84403" x="494.39799 499.10536 503.8127 508.52009 516.51809 523.09939 527.8067 532.51406 537.2214">2021-2022</tspan><tspan y="-494.295" x="49.480989 54.654603 59.36196 62.18638 65.24392 71.359 76.06636 79.48256 87.00537 93.24599 98.4196 102.65174 105.47616 110.64977 114.40669 118.63883 125.82092 129.37162 134.54523 137.5938 141.82595 145.70839">SoftwareEngineerIntern</tspan></text>
<text xml:space="preserve" transform="matrix(1 0 -0 1 0 841.89)" font-size="8.9664" font-family="SFRM0900"><tspan y="-494.295" x="464.598 471.12553 476.24534 481.36515 485.97389 491.35374 495.4514 499.08277 502.6693 508.29124 515.20437 520.32418 525.444 530.0527 534.6614 538.26589">Budapest,Hungary</tspan></text>
<text xml:space="preserve" transform="matrix(1 0 -0 1 0 841.89)" font-size="9.9626" font-family="LMRoman10" font-weight="bold"><tspan y="-481.76" x="48.461">&#x2013;</tspan></text>
<text xml:space="preserve" transform="matrix(1 0 -0 1 0 841.89)" font-size="9.9626" font-family="SFRM1000"><tspan y="-481.76" x="57.591 67.00565 71.98695 75.892299 80.8736 85.29699 94.143779 99.12508 107.97186 112.395259 116.3006 121.2819 125.20716 129.1424 132.44998 137.97922 140.75879 145.73012 149.60558 152.65413 157.63542 161.54076 173.16712 181.46596 186.44725 191.97649 194.7461 197.5157 205.25666 210.78589 215.20929 220.1906 224.614 227.3836 232.3649 237.89414 246.19298 250.61638 255.87664 263.0696 268.59886 272.5241 275.2937 280.82295 289.12178 295.62736 298.39695 303.92619 307.80165 311.6771 316.1005 323.33335 328.31465 333.84388 342.69065 350.30207 355.28337 359.1887">Workedoncross-platformmobiledevelopmentusingFlutterandDart</tspan></text>
<text xml:space="preserve" transform="matrix(1 0 -0 1 0 841.89)" font-size="9.9626" font-family="LMRoman10" font-weight="bold"><tspan y="-469.80503" x="48.461">&#x2013;</tspan></text>
<text xml:space="preserve" transform="matrix(1 0 -0 1 0 841.89)" font-size="9.9626" font-family="SFRM1000"><tspan y="-469.80503" x="57.591 63.817625 68.24102 73.22232 77.12766 82.656909 87.0803 95.927089 100.90839 106.71658 111.69788 117.22713 124.42012 131.7526 138.52716 144.0564 154.5769 159.5582 165.08744 173.93422 181.40618 186.93541 191.9167 197.44594 200.21555 205.19684 212.41973 215.46828 220.44957 227.67246 234.59645 239.01985 247.86664 253.39588 257.81929 262.80058 267.22398 269.99357 274.97486 280.5041 288.80296 293.22636 298.4866">LearnedaboutRESTandAngularforwebdevelopment</tspan></text>
<text xml:space="preserve" transform="matrix(1 0 -0 1 0 841.89)" font-size="11.9552" font-family="SFXC1200" font-weight="bold"><tspan y="-447.30104" x="39.684999 47.706937 56.135354 60.23599 66.63202 73.02805">Skills</tspan></text>
<path transform="matrix(1,0,0,-1,39.685,398.97303)" stroke-width=".398" stroke-linecap="butt" stroke-miterlimit="10" stroke-linejoin="miter" fill="none" stroke="#000000" d="M0 0H515.906"/>
<text xml:space="preserve" transform="matrix(1 0 -0 1 0 841.89)" font-size="9.9626" font-family="SFRB1000" font-weight="bold"><tspan y="-432.013" x="46.885 53.689455 57.953447 62.934747 67.916049 72.18004 77.021869 85.32071 93.61955 96.38915 101.918399 110.21724 116.1948 121.03662 126.565868 131.54717 137.0764 141.91823 146.89952 151.55205">ProgrammingLanguages</tspan></text>
<text xml:space="preserve" transform="matrix(1 0 -0 1 0 841.89)" font-size="9.9626" font-family="SFRM1000"><tspan y="-432.013" x="155.479 162.67201 169.44658 174.70684 178.58229 184.11153 189.09282 194.62206 200.71918 208.3306 213.31189 217.21723 221.09268 227.17984 234.37284 242.12374 249.87464 255.96179 261.08259 265.7849 270.49723 275.47853 281.56565 287.09489 294.8458 301.07243 307.15956 312.28034 316.98268 321.69499 326.67628 332.2055 336.6289 340.53425 343.30384 348.83308">:Python,Dart,C++,Java,SQL,JavaScript</tspan></text>
<text xml:space="preserve" transform="matrix(1 0 -0 1 0 841.89)" font-size="9.9626" font-family="SFRB1000" font-weight="bold"><tspan y="-420.058" x="46.885004 54.526319 59.178853 64.16015 68.81268 71.58228 76.56358 82.37178 87.024318">Developer</tspan></text>
<text xml:space="preserve" transform="matrix(1 0 -0 1 0 841.89)" font-size="9.9626" font-family="SFRM1000"><tspan y="-420.058" x="91.26401 98.457 106.27764 109.04724 112.92269 119.0198 126.631229 131.88152 136.03592 141.01723 145.44063 149.34597 155.43312 162.7656 169.54016 175.0694 182.26239 188.34955 196.1702 203.37316 209.31087 215.39803 220.79776 228.26972 231.86621 237.39545">:Git,Docker,REST,GCP,FAISS</tspan></text>
<text xml:space="preserve" transform="matrix(1 0 -0 1 0 841.89)" font-size="9.9626" font-family="SFRB1000" font-weight="bold"><tspan y="-408.10304" x="46.885007 52.31462 56.578615 61.420438 69.719287 74.37182 81.285869 86.267169 90.53116 95.79141">Frameworks</tspan></text>
<text xml:space="preserve" transform="matrix(1 0 -0 1 0 841.89)" font-size="9.9626" font-family="SFRM1000"><tspan y="-408.10304" x="99.70201 106.895008 113.40058 116.17018 121.699428 125.574878 129.45034 133.87374 137.77907 143.87619 151.34815 156.87738 161.85868 167.38791 170.15752 175.13881">:Flutter,Angular</tspan></text>
<text xml:space="preserve" transform="matrix(1 0 -0 1 0 841.89)" font-size="9.9626" font-family="SFRB1000" font-weight="bold"><tspan y="-396.14805" x="46.88501 52.86257 55.632177 61.16142 65.425418 70.26724 74.531238 77.300838 81.95337">Libraries</tspan></text>
<text xml:space="preserve" transform="matrix(1 0 -0 1 0 841.89)" font-size="9.9626" font-family="SFRM1000"><tspan y="-396.14805" x="89.18801 95.683628 100.664928 106.19417 111.72341 116.70471 120.629978 126.72708 132.25632 137.51657 140.28618 144.70958 149.69087 153.5962 159.12545 165.2126 171.5787 176.56 180.46533 184.60979 190.13903 196.22618 201.75542 205.63088 209.53621 213.95961 218.9409 227.23975 230.00936 232.77896 236.65442 242.74158 248.27082 252.69422 255.46382 260.7241 265.1475 271.2446 277.47123 282.4525 287.98176 292.96305 297.10749 302.63673 307.618 310.3876 315.91685 322.00398 329.19697 333.62037 338.0537 342.4771 345.2467 349.6701 353.57545 358.55674 362.4322 366.8556 372.94273 382.35737 387.33866 392.8679 398.39714 403.92637 410.0135 417.7644 422.1878 426.09315 431.07444 434.9997 441.08683 447.4529 451.35826 456.33955 461.86878 465.79405 468.8426 473.82389 477.72923 486.02809 490.45149 494.3568">Pandas,Sklearn,Torch,Streamlit,Scipy,Langchain,Accelerate,Wandb,Keras,Transformers</tspan></text>
<text xml:space="preserve" transform="matrix(1 0 -0 1 0 841.89)" font-size="9.9626" font-family="SFRB1000" font-weight="bold"><tspan y="-384.19306" x="46.88501 52.86257 57.704397 63.23364 68.214939 73.74418 78.586 83.5673 88.21983">Languages</tspan></text>
<text xml:space="preserve" transform="matrix(1 0 -0 1 0 841.89)" font-size="9.9626" font-family="SFRM1000"><tspan y="-384.19306" x="92.14901 99.342 106.81395 112.34319 117.87244 122.85374 127.83504 131.74037 134.50998 139.49127 148.34803 152.22348 157.75272 162.73401 166.60947 169.37908 174.36038 178.78379 182.65924 188.7464 195.52097 201.0502 206.0315 208.8011 211.57071 215.49597 224.34276 228.21822 230.98284 233.74745 239.27669 243.70009 248.96033 252.83579">:Hungarian(native),English(fluent)</tspan></text>
<text xml:space="preserve" transform="matrix(1 0 -0 1 0 841.89)" font-size="9.9626" font-family="SFRB1000" font-weight="bold"><tspan y="-372.23808" x="46.88501 54.406774 58.670766 63.3233 68.16512 75.40793 80.38923 86.755329 90.71048 95.97073 99.85615 104.50868 108.772678 113.42521 117.35047">AreasofInterest</tspan></text>
<text xml:space="preserve" transform="matrix(1 0 -0 1 0 841.89)" font-size="9.9626" font-family="SFRM1000"><tspan y="-372.23808" x="121.22701 128.42002 136.03144 141.01273 144.88819 153.19699 158.72623 163.14963 165.91924 170.34264 175.87187 180.29528 184.71868 190.80583 198.27779 204.50441 210.45209 216.53925 223.04483 225.81444 231.34368 236.32497 241.8542 246.2776 250.701 256.78816 264.2601 268.1953 272.06083 275.96617 280.94746 286.47669 291.45799 299.48786 303.91127 310.00837 316.50398 321.48527 326.46656 330.88996 334.7953 340.88243 344.4789 349.73918 354.72047 359.14387 363.06913 366.94459 375.24345 379.66685 384.9171 388.79258 392.71784 398.80497 406.6256 411.6069 419.90577 427.65669 434.84968 440.3789 444.8023 449.7836 453.68894 458.11235 464.20945 471.82087 476.24427 480.66767 489.51445 495.74107 500.16447 505.14576 509.0511 514.5803 517.3499 522.87918">:DataScience,NLP,Finance,Astronomy,Poker,Investments,GameTheory,DeepLearning</tspan></text>
<text xml:space="preserve" transform="matrix(1 0 -0 1 0 841.89)" font-size="11.9552" font-family="SFXC1200" font-weight="bold"><tspan y="-350.24208" x="39.685014 50.097997 57.844968 66.321208 70.42184 77.40367 85.53321 92.515048 102.772609 109.75444 118.24263 125.61899">Achievements</tspan></text>
<path transform="matrix(1,0,0,-1,39.685,496.031)" stroke-width=".398" stroke-linecap="butt" stroke-miterlimit="10" stroke-linejoin="miter" fill="none" stroke="#000000" d="M0 0H515.906"/>
<text xml:space="preserve" transform="matrix(1 0 -0 1 0 841.89)" font-size="5.9776" font-family="LMMathSymbols6" font-style="italic"><tspan y="-333.364" x="39.685">&#x2022;</tspan></text>
<text xml:space="preserve" transform="matrix(1 0 -0 1 0 841.89)" font-size="10.9091" font-family="SFRB1095" font-weight="bold"><tspan y="-332.062" x="49.481004 54.902826 59.17919 67.011928 74.419208 77.430118 82.69921 87.521038">1stPlace</tspan></text>
<text xml:space="preserve" transform="matrix(1 0 -0 1 0 841.89)" font-size="10.9091" font-family="SFRM1095"><tspan y="-332.062" x="93.411 99.585559 105.00738 109.8292 115.85102 118.86193 122.7783 128.50557 131.51648 139.41468 149.35286 154.77469 159.29106 165.31288 168.32379 174.34561 182.78926 189.56381 194.38564 199.80747 204.02928 210.04019 213.0511 219.07292 228.11658 235.94931 241.37114 250.40387 256.72026 261.54206 265.7639 268.7748 272.99665 276.00758 281.42939">Faculty&#x2019;sMachineLearningCompetition</tspan></text>
<text xml:space="preserve" transform="matrix(1 0 -0 1 0 841.89)" font-size="9.9626" font-family="SFTI1000" font-style="italic"><tspan y="-332.062" x="516.242 521.3329 526.42379 531.51467">2023</tspan></text>
<text xml:space="preserve" transform="matrix(1 0 -0 1 0 841.89)" font-size="5.9776" font-family="LMMathSymbols6" font-style="italic"><tspan y="-315.22203" x="39.684999">&#x2022;</tspan></text>
<text xml:space="preserve" transform="matrix(1 0 -0 1 0 841.89)" font-size="10.9091" font-family="SFRB1095" font-weight="bold"><tspan y="-313.92" x="49.480997 54.902818 59.179185 67.01192 74.4192 77.43011 82.6992 87.52103">1stPlace</tspan></text>
<text xml:space="preserve" transform="matrix(1 0 -0 1 0 841.89)" font-size="10.9091" font-family="SFRM1095"><tspan y="-313.92" x="93.410999 101.691 107.11282 111.33465 120.36738 126.3892 131.21102 134.22193 139.04375 145.06557 149.88739 158.33104 166.16378 171.5856 180.61833 186.9347 191.75652 195.97834 198.98925 203.21106 206.22197 211.6438 221.27654 227.29836 232.72019 236.99655 241.21837 246.04019 255.68384 261.4002 270.7493 274.97114 280.99296 289.42567 297.55296 303.57478 309.5966 315.0184 320.44023 324.66206 327.67298 333.0948 342.7275 350.8548 356.2766 360.49845 363.50938 368.93119 374.953 380.37483 387.00758 394.68757 400.10939 406.1312">DataScienceCompetitionhostedbytheHungarianNationalBank</tspan></text>
<text xml:space="preserve" transform="matrix(1 0 -0 1 0 841.89)" font-size="9.9626" font-family="SFTI1000" font-style="italic"><tspan y="-313.92" x="516.242 521.3329 526.42379 531.51467">2023</tspan></text>
<text xml:space="preserve" transform="matrix(1 0 -0 1 0 841.89)" font-size="5.9776" font-family="LMMathSymbols6" font-style="italic"><tspan y="-297.08003" x="39.684999">&#x2022;</tspan></text>
<text xml:space="preserve" transform="matrix(1 0 -0 1 0 841.89)" font-size="10.9091" font-family="SFRB1095" font-weight="bold"><tspan y="-295.778" x="49.480997 54.902818 60.92464 70.55737 77.96465 82.5792 85.59011 90.411937">2ndPrize</tspan></text>
<text xml:space="preserve" transform="matrix(1 0 -0 1 0 841.89)" font-size="10.9091" font-family="SFRM1095"><tspan y="-295.778" x="96.297 104.12973 112.40974 124.46429 132.29703 137.71886 146.74068 153.06795 157.88977 162.11159 165.1225 169.34432 172.35523 177.77706 187.40979 192.83162 202.47527 206.39163 212.108 217.54074 222.35166 226.57347 230.84984 239.29349 246.66805 250.88986 256.31169 262.3335 265.34443 270.16624 279.19898 287.08625 292.50807 298.52989 308.17353 315.54808 321.26445 326.9917 331.26808 334.279 339.1008 343.37718 346.999 350.91539 356.9372 360.25358 365.67539 369.89723 378.92997 383.75178 393.3845 401.51179 406.3336 412.3554 416.57725 421.99906 428.6318 436.7591 441.5809 445.49729 453.02458 458.44639 462.6682 468.39549">TDKCompetitiononInverseProblemsandPhysics-InformedNeuralNetworks</tspan></text>
<text xml:space="preserve" transform="matrix(1 0 -0 1 0 841.89)" font-size="9.9626" font-family="SFTI1000" font-style="italic"><tspan y="-295.778" x="516.242 521.3329 526.42379 531.51467">2023</tspan></text>
<text xml:space="preserve" transform="matrix(1 0 -0 1 0 841.89)" font-size="5.9776" font-family="LMMathSymbols6" font-style="italic"><tspan y="-278.93803" x="39.684999">&#x2022;</tspan></text>
<text xml:space="preserve" transform="matrix(1 0 -0 1 0 841.89)" font-size="10.9091" font-family="SFRB1095" font-weight="bold"><tspan y="-277.63603" x="49.480997 54.902818 59.179185 67.01192 74.4192 77.43011 82.6992 87.52103">1stPlace</tspan></text>
<text xml:space="preserve" transform="matrix(1 0 -0 1 0 841.89)" font-size="10.9091" font-family="SFRM1095"><tspan y="-277.63603" x="93.410999 101.53828 106.9601 111.18192 114.19283 119.614658 125.636478 131.0583 137.68013 145.36014 150.78197 153.79288 159.22562 164.64745 171.26927 176.84383 182.26566 188.28748 193.7093 201.59659 208.53478 213.3566 218.77843 231.42208 239.2548 244.67664 253.70937 260.03666 264.85847 269.0803 272.08033 276.30216 279.31309 284.7349 294.37855 297.38948 307.0222 316.9604 322.3822 326.60404 332.62586 337.44767 346.4804 351.90223 356.12406 359.13499 363.9568">NationalBolyaiJ&#x00e1;nosTeamCompetitioninMathematics</tspan></text>
<text xml:space="preserve" transform="matrix(1 0 -0 1 0 841.89)" font-size="9.9626" font-family="SFTI1000" font-style="italic"><tspan y="-277.63603" x="516.242 521.3329 526.42379 531.51467">2017</tspan></text>
<text xml:space="preserve" transform="matrix(1 0 -0 1 0 841.89)" font-size="11.9552" font-family="SFXC1200" font-weight="bold"><tspan y="-253.87302" x="39.684999 49.476308 57.151548 65.12566 70.70874 77.690578 85.437549 92.8139">Projects</tspan></text>
<path transform="matrix(1,0,0,-1,39.685,592.4)" stroke-width=".398" stroke-linecap="butt" stroke-miterlimit="10" stroke-linejoin="miter" fill="none" stroke="#000000" d="M0 0H515.906"/>
<text xml:space="preserve" transform="matrix(1 0 -0 1 0 841.89)" font-size="5.9776" font-family="LMMathSymbols6" font-style="italic"><tspan y="-236.996" x="39.685">&#x2022;</tspan></text>
<text xml:space="preserve" transform="matrix(1 0 -0 1 0 841.89)" font-size="10.9091" font-family="SFRB1095" font-weight="bold"><tspan y="-235.694" x="49.481004 59.779195 65.04829 69.32465 73.54648 78.58648 83.20103 86.21194 94.09921 101.626499 107.648319 112.68832 116.96468 119.97559 124.25196">Master&#x2019;sThesis:</tspan></text>
<text xml:space="preserve" transform="matrix(1 0 -0 1 0 841.89)" font-size="10.9091" font-family="SFRM1095"><tspan y="-235.694" x="132.935 142.87319 152.22229 159.74958 165.1714 169.39322 178.73142 182.04778 187.77506 192.59688 198.6187 202.89507 207.71689 217.34963 222.77146 232.4151 240.40056 245.22238 249.4442 253.66602 256.67695 261.49876 266.6151 272.03694 278.66969 286.79698 292.8188 298.2406 307.27336 312.09516 317.81153 322.03337 326.85517 336.4988 345.0079 349.81883 355.84065 360.66246 364.88429 370.3061 374.52793 377.53886 382.96067 392.6043 398.62614 402.9025 405.91343 411.93525 420.96797 429.47706 436.8516 443.77888">MyworkfocusedonRetrievalAugmentedGenerationusingGPTs</tspan></text>
<text xml:space="preserve" transform="matrix(1 0 -0 1 0 841.89)" font-size="9.9626" font-family="SFTI1000" font-style="italic"><tspan y="-235.694" x="516.242 521.3329 526.42379 531.51467">2024</tspan></text>
<text xml:space="preserve" transform="matrix(1 0 -0 1 0 841.89)" font-size="5.9776" font-family="LMMathSymbols6" font-style="italic"><tspan y="-218.853" x="39.684999">&#x2022;</tspan></text>
<text xml:space="preserve" transform="matrix(1 0 -0 1 0 841.89)" font-size="10.9091" font-family="SFRB1095" font-weight="bold"><tspan y="-217.551" x="49.480997 57.18282 62.451917 66.96828 72.9901 78.0301 81.04101 86.46283 91.07738 95.353748 98.364658 106.26284 113.77921 119.80103 124.841037 129.1174 132.12831 136.40468">Bachelors&#x2019;sThesis:</tspan></text>
<text xml:space="preserve" transform="matrix(1 0 -0 1 0 841.89)" font-size="10.9091" font-family="SFRM1095"><tspan y="-217.551" x="145.09699 155.03517 164.38428 171.91156 177.33339 181.5552 190.8934 194.20977 199.93704 204.75887 210.78069 215.05706 219.87888 229.51161 234.93344 244.57709 248.7989 253.02072 258.44255 261.45347 267.47529 270.4862 276.49714 285.54078 293.22077 300.5953 307.67533 315.50807 319.12989 322.1408 325.15174 330.57356 339.01719 343.239 347.46086 352.88267 358.90449 363.18086 366.49723 371.91905 376.14088 385.1736 389.99543 394.21726 402.10453 405.4209 410.8427 418.68638 426.81367 433.5882 444.57365 448.79548 454.2173 458.49366 464.22093">MyworkfocusedontrainingBERT-liketransformersforNLPtasks</tspan></text>
<text xml:space="preserve" transform="matrix(1 0 -0 1 0 841.89)" font-size="9.9626" font-family="SFTI1000" font-style="italic"><tspan y="-217.551" x="516.24197 521.3328 526.4237 531.5146">2022</tspan></text>
<text xml:space="preserve" transform="matrix(1 0 -0 1 0 841.89)" font-size="5.9776" font-family="LMMathSymbols6" font-style="italic"><tspan y="-200.711" x="39.684938">&#x2022;</tspan></text>
<text xml:space="preserve" transform="matrix(1 0 -0 1 0 841.89)" font-size="10.9091" font-family="SFRB1095" font-weight="bold"><tspan y="-199.409" x="49.480936 55.502759 60.019128 66.04095 71.76823 77.19005 83.81187 94.099147 99.520969 104.13551 109.86279">SchoolWork:</tspan></text>
<text xml:space="preserve" transform="matrix(1 0 -0 1 0 841.89)" font-size="10.9091" font-family="SFRM1095"><tspan y="-199.409" x="118.53094 126.06912 130.29094 134.51276 139.92368 142.93459 148.9564 153.77823 163.42188 168.8437 174.86553 184.49826 190.52008 195.3419 201.36373 204.37464 209.50193 214.92375 219.74558 229.37831 238.42197 244.44379 247.4547 250.61833 253.78199 259.8038 264.08018 267.0911 272.5129 282.14564 291.17839 296.90565 302.92747 307.74928 314.3711 322.20384 325.21476 329.43659 339.08024 348.11296 352.33479 357.1566 362.5784 375.23298 380.6548 387.58207 391.8039 397.8257 402.04756 406.86936">Itrainedanddeployedadiffusionmodelwithateamofthree</tspan></text>
<text xml:space="preserve" transform="matrix(1 0 -0 1 0 841.89)" font-size="9.9626" font-family="SFTI1000" font-style="italic"><tspan y="-199.409" x="516.24197 521.3328 526.4237 531.5146">2023</tspan></text>
<text xml:space="preserve" transform="matrix(1 0 -0 1 0 841.89)" font-size="5.9776" font-family="LMMathSymbols6" font-style="italic"><tspan y="-182.569" x="39.684938">&#x2022;</tspan></text>
<text xml:space="preserve" transform="matrix(1 0 -0 1 0 841.89)" font-size="10.9091" font-family="SFRB1095" font-weight="bold"><tspan y="-181.267" x="49.480936 56.58276 61.622766 69.46641 76.87369 81.488239 87.510059 90.82642 95.866428 100.68825 104.91007 109.18644">PetProjects:</tspan></text>
<text xml:space="preserve" transform="matrix(1 0 -0 1 0 841.89)" font-size="10.9091" font-family="SFRM1095"><tspan y="-181.267" x="122.673938 130.80121 136.82303 142.99758 149.0194 153.29576 156.30667 161.7285">HuFusion</tspan></text>
<text xml:space="preserve" transform="matrix(1 0 -0 1 0 841.89)" font-size="10.9091" font-family="SFRM1095"><tspan y="-181.267" x="171.39194">&#x2022;</tspan></text>
<text xml:space="preserve" transform="matrix(1 0 -0 1 0 841.89)" font-size="10.9091" font-family="SFRM1095"><tspan y="-181.267" x="180.43193 188.5592 192.47557 200.90831 204.53014 213.03923 220.41379">VIK-GPT</tspan></text>
<text xml:space="preserve" transform="matrix(1 0 -0 1 0 841.89)" font-size="10.9091" font-family="SFRM1095"><tspan y="-181.267" x="231.86392">&#x2022;</tspan></text>
<text xml:space="preserve" transform="matrix(1 0 -0 1 0 841.89)" font-size="10.9091" font-family="SFRM1095"><tspan y="-181.267" x="240.90493 248.58493 258.52314 269.5195 277.7995 283.2213 287.44316 296.47587 304.60316 307.61408 311.89045 317.91227 323.33409 326.345 329.35594 334.17774 339.59956 343.82139 346.8323 352.25413">BMEDataVisualization</tspan></text>
<text xml:space="preserve" transform="matrix(1 0 -0 1 0 841.89)" font-size="10.9091" font-family="SFRM1095"><tspan y="-181.267" x="361.93394">&#x2022;</tspan></text>
<text xml:space="preserve" transform="matrix(1 0 -0 1 0 841.89)" font-size="10.9091" font-family="SFRM1095"><tspan y="-181.267" x="370.97395 379.25395 382.26487 385.4285 388.59214 394.61396 398.89033 401.90126 407.32307">Diffusion</tspan></text>
<text xml:space="preserve" transform="matrix(1 0 -0 1 0 841.89)" font-size="10.9091" font-family="SFRM1095"><tspan y="-181.267" x="416.98896">&#x2022;</tspan></text>
<text xml:space="preserve" transform="matrix(1 0 -0 1 0 841.89)" font-size="10.9091" font-family="SFRM1095"><tspan y="-181.267" x="426.02897 434.4617 440.48353 445.90534 451.6217 459.46537 466.54539 469.5563 475.57814 480.99995 487.02177 491.84358">QuantFinance</tspan></text>
<text xml:space="preserve" transform="matrix(1 0 -0 1 0 841.89)" font-size="11.9552" font-family="SFXC1200" font-weight="bold"><tspan y="-157.505" x="39.684968 49.117624 57.247159 64.62352 72.68133 80.81087 85.73641 96.089618 104.39848 112.45629 120.5141 124.61473 132.3617 140.67057 147.06659 155.19612 168.17946 175.92642 183.66144 191.0378 195.13843 203.26796 207.36859 214.74495 218.84558 225.82743">Extra-Curricularactivities</tspan></text>
<path transform="matrix(1,0,0,-1,39.685,688.76907)" stroke-width=".398" stroke-linecap="butt" stroke-miterlimit="10" stroke-linejoin="miter" fill="none" stroke="#000000" d="M0 0H515.906"/>
<text xml:space="preserve" transform="matrix(1 0 -0 1 0 841.89)" font-size="5.9776" font-family="LMMathSymbols6" font-style="italic"><tspan y="-140.627" x="39.685">&#x2022;</tspan></text>
<text xml:space="preserve" transform="matrix(1 0 -0 1 0 841.89)" font-size="10.9091" font-family="SFRM1095"><tspan y="-139.325" x="53.949 61.48719 69.014469 74.43629 82.32356 91.3672 98.29448 110.04358 113.35995 118.78177 126.6145 130.83632 136.85814 145.30179 151.3127 157.33452 160.34543 165.77817 170.59999 174.82181 179.09818 182.10909 186.02545 191.75273 194.76364 202.65093 211.68366 217.10549 221.63277 227.65459 230.6655 236.68732 245.12006 248.13097 252.95279 258.3746 262.59645 268.61827 271.62919 277.651 286.68373 291.50553 296.92735 302.94917 307.171 311.44737">IwasaTAfortheuniversity&#x2019;smachinelearningcourse</tspan></text>
<text xml:space="preserve" transform="matrix(1 0 -0 1 0 841.89)" font-size="9.9626" font-family="SFTI1000" font-style="italic"><tspan y="-139.325" x="516.242 521.3329 526.42379 531.51467">2024</tspan></text>
<text xml:space="preserve" transform="matrix(1 0 -0 1 0 841.89)" font-size="5.9776" font-family="LMMathSymbols6" font-style="italic"><tspan y="-122.485" x="39.684999">&#x2022;</tspan></text>
<text xml:space="preserve" transform="matrix(1 0 -0 1 0 841.89)" font-size="10.9091" font-family="SFRM1095"><tspan y="-121.183" x="53.948999 61.487188 67.4981 72.91992 77.14175 81.36357 84.37448 89.196308 92.207218 98.229038 103.650859 107.87268 112.6945 122.33814 125.34905 134.9818 143.70908 153.05818 159.08 165.10182 168.11273 173.53456 178.35639 182.5782 186.85457 189.86548 193.78185 199.50913 202.52004 210.41823 214.3346 224.27278 230.2946 241.73825 247.76007 251.98189 257.40373 262.82554 267.04737 272.46919 285.12376 288.44013 293.86195 301.69468 305.9165 311.33833 314.34925 319.17106 324.88743 329.10926 333.93107 343.5747 347.85108 352.0729 358.09474 364.11656 368.93836 374.65473 378.87657">Iparticipatedinmyuniversity&#x2019;sIMSCprogramfortalentedstudents</tspan></text>
<text xml:space="preserve" transform="matrix(1 0 -0 1 0 841.89)" font-size="9.9626" font-family="SFTI1000" font-style="italic"><tspan y="-121.183" x="492.316 497.4069 502.49778 507.58866 512.67959 516.24618 521.33706 526.4279 531.5188">2018-2022</tspan></text>
<text xml:space="preserve" transform="matrix(1 0 -0 1 0 841.89)" font-size="5.9776" font-family="LMMathSymbols6" font-style="italic"><tspan y="-104.343" x="39.684999">&#x2022;</tspan></text>
<text xml:space="preserve" transform="matrix(1 0 -0 1 0 841.89)" font-size="10.9091" font-family="SFRM1095"><tspan y="-103.041" x="53.948999 61.770826 65.992649 70.21447 75.03629 81.05811 87.07993 91.90176 101.545398 105.76722 111.78904 120.22177 127.59632 131.81815 137.83997 143.2618 151.15999 161.09818 166.52 170.74182 176.75273 181.57456 190.60729 196.02912 200.25093 203.26184 208.08367 213.5055 220.13823 226.16005 230.67642 236.69824 242.42552 247.84735 254.46918 257.78556 263.20738 271.05104 275.26197 280.68379 283.6947 288.5165 294.24378 298.4656 303.2874 312.92015 317.1965 321.41835 327.44017 333.46199 338.28379 344.00016 348.222 356.12019 361.542 371.1747 375.39656 381.41838 389.862 397.38929 402.2111 407.0329 412.4547 417.27653 423.29835 429.32017">AttendedtheErd&#x0151;sMathematicalSchoolfortalentedstudentsontheweekends</tspan></text>
<text xml:space="preserve" transform="matrix(1 0 -0 1 0 841.89)" font-size="9.9626" font-family="SFTI1000" font-style="italic"><tspan y="-103.041" x="492.316 497.4069 502.49778 507.58866 512.67959 516.24618 521.33706 526.4279 531.5188">2016-2018</tspan></text>
<text xml:space="preserve" transform="matrix(1 0 -0 1 0 841.89)" font-size="11.9552" font-family="SFCC1200"><tspan y="-36.758005" x="460.652 469.726 477.13825 484.89717 492.3094 497.8327 509.32167 515.6938 522.0659 530.07589 536.448 542.8201 549.19229">August11,2024</tspan></text>
<path transform="matrix(1,0,0,-1,39.685,809.515)" stroke-width=".398" stroke-linecap="butt" stroke-miterlimit="10" stroke-linejoin="miter" fill="none" stroke="#000000" d="M0 0H515.906"/>
</svg>
