<?xml version="1.0" encoding="utf-8" standalone="no"?>
<!DOCTYPE svg PUBLIC "-//W3C//DTD SVG 1.1//EN"
  "http://www.w3.org/Graphics/SVG/1.1/DTD/svg11.dtd">
<svg xmlns:xlink="http://www.w3.org/1999/xlink" width="864pt" height="533.992583pt" viewBox="0 0 864 533.992583" xmlns="http://www.w3.org/2000/svg" version="1.1">
 <metadata>
  <rdf:RDF xmlns:dc="http://purl.org/dc/elements/1.1/" xmlns:cc="http://creativecommons.org/ns#" xmlns:rdf="http://www.w3.org/1999/02/22-rdf-syntax-ns#">
   <cc:Work>
    <dc:type rdf:resource="http://purl.org/dc/dcmitype/StillImage"/>
    <dc:date>2024-08-12T19:16:27.824086</dc:date>
    <dc:format>image/svg+xml</dc:format>
    <dc:creator>
     <cc:Agent>
      <dc:title>Matplotlib v3.8.3, https://matplotlib.org/</dc:title>
     </cc:Agent>
    </dc:creator>
   </cc:Work>
  </rdf:RDF>
 </metadata>
 <defs>
  <style type="text/css">*{stroke-linejoin: round; stroke-linecap: butt}</style>
 </defs>
 <g id="figure_1">
  <g id="patch_1">
   <path d="M 0 533.992583 
L 864 533.992583 
L 864 0 
L 0 0 
L 0 533.992583 
z
" style="fill: none; opacity: 0"/>
  </g>
  <g id="axes_1">
   <g id="patch_2">
    <path d="M 108 475.253399 
L 777.6 475.253399 
L 777.6 64.07911 
L 108 64.07911 
L 108 475.253399 
z
" style="fill: none; opacity: 0"/>
   </g>
   <g id="matplotlib.axis_1">
    <g id="xtick_1">
     <g id="line2d_1">
      <defs>
       <path id="md2bd067b41" d="M 0 0 
L 0 3.5 
" style="stroke: #000000; stroke-width: 0.8"/>
      </defs>
      <g>
       <use xlink:href="#md2bd067b41" x="138.436364" y="475.253399" style="stroke: #000000; stroke-width: 0.8"/>
      </g>
     </g>
     <g id="text_1">
      <!-- 0 -->
      <g transform="translate(132.073864 497.450274) scale(0.2 -0.2)">
       <defs>
        <path id="DejaVuSans-30" d="M 2034 4250 
Q 1547 4250 1301 3770 
Q 1056 3291 1056 2328 
Q 1056 1369 1301 889 
Q 1547 409 2034 409 
Q 2525 409 2770 889 
Q 3016 1369 3016 2328 
Q 3016 3291 2770 3770 
Q 2525 4250 2034 4250 
z
M 2034 4750 
Q 2819 4750 3233 4129 
Q 3647 3509 3647 2328 
Q 3647 1150 3233 529 
Q 2819 -91 2034 -91 
Q 1250 -91 836 529 
Q 422 1150 422 2328 
Q 422 3509 836 4129 
Q 1250 4750 2034 4750 
z
" transform="scale(0.015625)"/>
       </defs>
       <use xlink:href="#DejaVuSans-30"/>
      </g>
     </g>
    </g>
    <g id="xtick_2">
     <g id="line2d_2">
      <g>
       <use xlink:href="#md2bd067b41" x="214.527273" y="475.253399" style="stroke: #000000; stroke-width: 0.8"/>
      </g>
     </g>
     <g id="text_2">
      <!-- 2 -->
      <g transform="translate(208.164773 497.450274) scale(0.2 -0.2)">
       <defs>
        <path id="DejaVuSans-32" d="M 1228 531 
L 3431 531 
L 3431 0 
L 469 0 
L 469 531 
Q 828 903 1448 1529 
Q 2069 2156 2228 2338 
Q 2531 2678 2651 2914 
Q 2772 3150 2772 3378 
Q 2772 3750 2511 3984 
Q 2250 4219 1831 4219 
Q 1534 4219 1204 4116 
Q 875 4013 500 3803 
L 500 4441 
Q 881 4594 1212 4672 
Q 1544 4750 1819 4750 
Q 2544 4750 2975 4387 
Q 3406 4025 3406 3419 
Q 3406 3131 3298 2873 
Q 3191 2616 2906 2266 
Q 2828 2175 2409 1742 
Q 1991 1309 1228 531 
z
" transform="scale(0.015625)"/>
       </defs>
       <use xlink:href="#DejaVuSans-32"/>
      </g>
     </g>
    </g>
    <g id="xtick_3">
     <g id="line2d_3">
      <g>
       <use xlink:href="#md2bd067b41" x="290.618182" y="475.253399" style="stroke: #000000; stroke-width: 0.8"/>
      </g>
     </g>
     <g id="text_3">
      <!-- 5 -->
      <g transform="translate(284.255682 497.450274) scale(0.2 -0.2)">
       <defs>
        <path id="DejaVuSans-35" d="M 691 4666 
L 3169 4666 
L 3169 4134 
L 1269 4134 
L 1269 2991 
Q 1406 3038 1543 3061 
Q 1681 3084 1819 3084 
Q 2600 3084 3056 2656 
Q 3513 2228 3513 1497 
Q 3513 744 3044 326 
Q 2575 -91 1722 -91 
Q 1428 -91 1123 -41 
Q 819 9 494 109 
L 494 744 
Q 775 591 1075 516 
Q 1375 441 1709 441 
Q 2250 441 2565 725 
Q 2881 1009 2881 1497 
Q 2881 1984 2565 2268 
Q 2250 2553 1709 2553 
Q 1456 2553 1204 2497 
Q 953 2441 691 2322 
L 691 4666 
z
" transform="scale(0.015625)"/>
       </defs>
       <use xlink:href="#DejaVuSans-35"/>
      </g>
     </g>
    </g>
    <g id="xtick_4">
     <g id="line2d_4">
      <g>
       <use xlink:href="#md2bd067b41" x="366.709091" y="475.253399" style="stroke: #000000; stroke-width: 0.8"/>
      </g>
     </g>
     <g id="text_4">
      <!-- 8 -->
      <g transform="translate(360.346591 497.450274) scale(0.2 -0.2)">
       <defs>
        <path id="DejaVuSans-38" d="M 2034 2216 
Q 1584 2216 1326 1975 
Q 1069 1734 1069 1313 
Q 1069 891 1326 650 
Q 1584 409 2034 409 
Q 2484 409 2743 651 
Q 3003 894 3003 1313 
Q 3003 1734 2745 1975 
Q 2488 2216 2034 2216 
z
M 1403 2484 
Q 997 2584 770 2862 
Q 544 3141 544 3541 
Q 544 4100 942 4425 
Q 1341 4750 2034 4750 
Q 2731 4750 3128 4425 
Q 3525 4100 3525 3541 
Q 3525 3141 3298 2862 
Q 3072 2584 2669 2484 
Q 3125 2378 3379 2068 
Q 3634 1759 3634 1313 
Q 3634 634 3220 271 
Q 2806 -91 2034 -91 
Q 1263 -91 848 271 
Q 434 634 434 1313 
Q 434 1759 690 2068 
Q 947 2378 1403 2484 
z
M 1172 3481 
Q 1172 3119 1398 2916 
Q 1625 2713 2034 2713 
Q 2441 2713 2670 2916 
Q 2900 3119 2900 3481 
Q 2900 3844 2670 4047 
Q 2441 4250 2034 4250 
Q 1625 4250 1398 4047 
Q 1172 3844 1172 3481 
z
" transform="scale(0.015625)"/>
       </defs>
       <use xlink:href="#DejaVuSans-38"/>
      </g>
     </g>
    </g>
    <g id="xtick_5">
     <g id="line2d_5">
      <g>
       <use xlink:href="#md2bd067b41" x="442.8" y="475.253399" style="stroke: #000000; stroke-width: 0.8"/>
      </g>
     </g>
     <g id="text_5">
      <!-- 10 -->
      <g transform="translate(430.075 497.450274) scale(0.2 -0.2)">
       <defs>
        <path id="DejaVuSans-31" d="M 794 531 
L 1825 531 
L 1825 4091 
L 703 3866 
L 703 4441 
L 1819 4666 
L 2450 4666 
L 2450 531 
L 3481 531 
L 3481 0 
L 794 0 
L 794 531 
z
" transform="scale(0.015625)"/>
       </defs>
       <use xlink:href="#DejaVuSans-31"/>
       <use xlink:href="#DejaVuSans-30" x="63.623047"/>
      </g>
     </g>
    </g>
    <g id="xtick_6">
     <g id="line2d_6">
      <g>
       <use xlink:href="#md2bd067b41" x="518.890909" y="475.253399" style="stroke: #000000; stroke-width: 0.8"/>
      </g>
     </g>
     <g id="text_6">
      <!-- 12 -->
      <g transform="translate(506.165909 497.450274) scale(0.2 -0.2)">
       <use xlink:href="#DejaVuSans-31"/>
       <use xlink:href="#DejaVuSans-32" x="63.623047"/>
      </g>
     </g>
    </g>
    <g id="xtick_7">
     <g id="line2d_7">
      <g>
       <use xlink:href="#md2bd067b41" x="594.981818" y="475.253399" style="stroke: #000000; stroke-width: 0.8"/>
      </g>
     </g>
     <g id="text_7">
      <!-- 15 -->
      <g transform="translate(582.256818 497.450274) scale(0.2 -0.2)">
       <use xlink:href="#DejaVuSans-31"/>
       <use xlink:href="#DejaVuSans-35" x="63.623047"/>
      </g>
     </g>
    </g>
    <g id="xtick_8">
     <g id="line2d_8">
      <g>
       <use xlink:href="#md2bd067b41" x="671.072727" y="475.253399" style="stroke: #000000; stroke-width: 0.8"/>
      </g>
     </g>
     <g id="text_8">
      <!-- 18 -->
      <g transform="translate(658.347727 497.450274) scale(0.2 -0.2)">
       <use xlink:href="#DejaVuSans-31"/>
       <use xlink:href="#DejaVuSans-38" x="63.623047"/>
      </g>
     </g>
    </g>
    <g id="xtick_9">
     <g id="line2d_9">
      <g>
       <use xlink:href="#md2bd067b41" x="747.163636" y="475.253399" style="stroke: #000000; stroke-width: 0.8"/>
      </g>
     </g>
     <g id="text_9">
      <!-- 20 -->
      <g transform="translate(734.438636 497.450274) scale(0.2 -0.2)">
       <use xlink:href="#DejaVuSans-32"/>
       <use xlink:href="#DejaVuSans-30" x="63.623047"/>
      </g>
     </g>
    </g>
    <g id="text_10">
     <!-- Eltelt félévek száma -->
     <g style="fill: #187aba" transform="translate(331.538437 522.326212) scale(0.22 -0.22)">
      <defs>
       <path id="DejaVuSans-45" d="M 628 4666 
L 3578 4666 
L 3578 4134 
L 1259 4134 
L 1259 2753 
L 3481 2753 
L 3481 2222 
L 1259 2222 
L 1259 531 
L 3634 531 
L 3634 0 
L 628 0 
L 628 4666 
z
" transform="scale(0.015625)"/>
       <path id="DejaVuSans-6c" d="M 603 4863 
L 1178 4863 
L 1178 0 
L 603 0 
L 603 4863 
z
" transform="scale(0.015625)"/>
       <path id="DejaVuSans-74" d="M 1172 4494 
L 1172 3500 
L 2356 3500 
L 2356 3053 
L 1172 3053 
L 1172 1153 
Q 1172 725 1289 603 
Q 1406 481 1766 481 
L 2356 481 
L 2356 0 
L 1766 0 
Q 1100 0 847 248 
Q 594 497 594 1153 
L 594 3053 
L 172 3053 
L 172 3500 
L 594 3500 
L 594 4494 
L 1172 4494 
z
" transform="scale(0.015625)"/>
       <path id="DejaVuSans-65" d="M 3597 1894 
L 3597 1613 
L 953 1613 
Q 991 1019 1311 708 
Q 1631 397 2203 397 
Q 2534 397 2845 478 
Q 3156 559 3463 722 
L 3463 178 
Q 3153 47 2828 -22 
Q 2503 -91 2169 -91 
Q 1331 -91 842 396 
Q 353 884 353 1716 
Q 353 2575 817 3079 
Q 1281 3584 2069 3584 
Q 2775 3584 3186 3129 
Q 3597 2675 3597 1894 
z
M 3022 2063 
Q 3016 2534 2758 2815 
Q 2500 3097 2075 3097 
Q 1594 3097 1305 2825 
Q 1016 2553 972 2059 
L 3022 2063 
z
" transform="scale(0.015625)"/>
       <path id="DejaVuSans-20" transform="scale(0.015625)"/>
       <path id="DejaVuSans-66" d="M 2375 4863 
L 2375 4384 
L 1825 4384 
Q 1516 4384 1395 4259 
Q 1275 4134 1275 3809 
L 1275 3500 
L 2222 3500 
L 2222 3053 
L 1275 3053 
L 1275 0 
L 697 0 
L 697 3053 
L 147 3053 
L 147 3500 
L 697 3500 
L 697 3744 
Q 697 4328 969 4595 
Q 1241 4863 1831 4863 
L 2375 4863 
z
" transform="scale(0.015625)"/>
       <path id="DejaVuSans-e9" d="M 3597 1894 
L 3597 1613 
L 953 1613 
Q 991 1019 1311 708 
Q 1631 397 2203 397 
Q 2534 397 2845 478 
Q 3156 559 3463 722 
L 3463 178 
Q 3153 47 2828 -22 
Q 2503 -91 2169 -91 
Q 1331 -91 842 396 
Q 353 884 353 1716 
Q 353 2575 817 3079 
Q 1281 3584 2069 3584 
Q 2775 3584 3186 3129 
Q 3597 2675 3597 1894 
z
M 3022 2063 
Q 3016 2534 2758 2815 
Q 2500 3097 2075 3097 
Q 1594 3097 1305 2825 
Q 1016 2553 972 2059 
L 3022 2063 
z
M 2466 5119 
L 3088 5119 
L 2070 3944 
L 1591 3944 
L 2466 5119 
z
" transform="scale(0.015625)"/>
       <path id="DejaVuSans-76" d="M 191 3500 
L 800 3500 
L 1894 563 
L 2988 3500 
L 3597 3500 
L 2284 0 
L 1503 0 
L 191 3500 
z
" transform="scale(0.015625)"/>
       <path id="DejaVuSans-6b" d="M 581 4863 
L 1159 4863 
L 1159 1991 
L 2875 3500 
L 3609 3500 
L 1753 1863 
L 3688 0 
L 2938 0 
L 1159 1709 
L 1159 0 
L 581 0 
L 581 4863 
z
" transform="scale(0.015625)"/>
       <path id="DejaVuSans-73" d="M 2834 3397 
L 2834 2853 
Q 2591 2978 2328 3040 
Q 2066 3103 1784 3103 
Q 1356 3103 1142 2972 
Q 928 2841 928 2578 
Q 928 2378 1081 2264 
Q 1234 2150 1697 2047 
L 1894 2003 
Q 2506 1872 2764 1633 
Q 3022 1394 3022 966 
Q 3022 478 2636 193 
Q 2250 -91 1575 -91 
Q 1294 -91 989 -36 
Q 684 19 347 128 
L 347 722 
Q 666 556 975 473 
Q 1284 391 1588 391 
Q 1994 391 2212 530 
Q 2431 669 2431 922 
Q 2431 1156 2273 1281 
Q 2116 1406 1581 1522 
L 1381 1569 
Q 847 1681 609 1914 
Q 372 2147 372 2553 
Q 372 3047 722 3315 
Q 1072 3584 1716 3584 
Q 2034 3584 2315 3537 
Q 2597 3491 2834 3397 
z
" transform="scale(0.015625)"/>
       <path id="DejaVuSans-7a" d="M 353 3500 
L 3084 3500 
L 3084 2975 
L 922 459 
L 3084 459 
L 3084 0 
L 275 0 
L 275 525 
L 2438 3041 
L 353 3041 
L 353 3500 
z
" transform="scale(0.015625)"/>
       <path id="DejaVuSans-e1" d="M 2194 1759 
Q 1497 1759 1228 1600 
Q 959 1441 959 1056 
Q 959 750 1161 570 
Q 1363 391 1709 391 
Q 2188 391 2477 730 
Q 2766 1069 2766 1631 
L 2766 1759 
L 2194 1759 
z
M 3341 1997 
L 3341 0 
L 2766 0 
L 2766 531 
Q 2569 213 2275 61 
Q 1981 -91 1556 -91 
Q 1019 -91 701 211 
Q 384 513 384 1019 
Q 384 1609 779 1909 
Q 1175 2209 1959 2209 
L 2766 2209 
L 2766 2266 
Q 2766 2663 2505 2880 
Q 2244 3097 1772 3097 
Q 1472 3097 1187 3025 
Q 903 2953 641 2809 
L 641 3341 
Q 956 3463 1253 3523 
Q 1550 3584 1831 3584 
Q 2591 3584 2966 3190 
Q 3341 2797 3341 1997 
z
M 2290 5119 
L 2912 5119 
L 1894 3944 
L 1415 3944 
L 2290 5119 
z
" transform="scale(0.015625)"/>
       <path id="DejaVuSans-6d" d="M 3328 2828 
Q 3544 3216 3844 3400 
Q 4144 3584 4550 3584 
Q 5097 3584 5394 3201 
Q 5691 2819 5691 2113 
L 5691 0 
L 5113 0 
L 5113 2094 
Q 5113 2597 4934 2840 
Q 4756 3084 4391 3084 
Q 3944 3084 3684 2787 
Q 3425 2491 3425 1978 
L 3425 0 
L 2847 0 
L 2847 2094 
Q 2847 2600 2669 2842 
Q 2491 3084 2119 3084 
Q 1678 3084 1418 2786 
Q 1159 2488 1159 1978 
L 1159 0 
L 581 0 
L 581 3500 
L 1159 3500 
L 1159 2956 
Q 1356 3278 1631 3431 
Q 1906 3584 2284 3584 
Q 2666 3584 2933 3390 
Q 3200 3197 3328 2828 
z
" transform="scale(0.015625)"/>
       <path id="DejaVuSans-61" d="M 2194 1759 
Q 1497 1759 1228 1600 
Q 959 1441 959 1056 
Q 959 750 1161 570 
Q 1363 391 1709 391 
Q 2188 391 2477 730 
Q 2766 1069 2766 1631 
L 2766 1759 
L 2194 1759 
z
M 3341 1997 
L 3341 0 
L 2766 0 
L 2766 531 
Q 2569 213 2275 61 
Q 1981 -91 1556 -91 
Q 1019 -91 701 211 
Q 384 513 384 1019 
Q 384 1609 779 1909 
Q 1175 2209 1959 2209 
L 2766 2209 
L 2766 2266 
Q 2766 2663 2505 2880 
Q 2244 3097 1772 3097 
Q 1472 3097 1187 3025 
Q 903 2953 641 2809 
L 641 3341 
Q 956 3463 1253 3523 
Q 1550 3584 1831 3584 
Q 2591 3584 2966 3190 
Q 3341 2797 3341 1997 
z
" transform="scale(0.015625)"/>
      </defs>
      <use xlink:href="#DejaVuSans-45"/>
      <use xlink:href="#DejaVuSans-6c" x="63.183594"/>
      <use xlink:href="#DejaVuSans-74" x="90.966797"/>
      <use xlink:href="#DejaVuSans-65" x="130.175781"/>
      <use xlink:href="#DejaVuSans-6c" x="191.699219"/>
      <use xlink:href="#DejaVuSans-74" x="219.482422"/>
      <use xlink:href="#DejaVuSans-20" x="258.691406"/>
      <use xlink:href="#DejaVuSans-66" x="290.478516"/>
      <use xlink:href="#DejaVuSans-e9" x="325.683594"/>
      <use xlink:href="#DejaVuSans-6c" x="387.207031"/>
      <use xlink:href="#DejaVuSans-e9" x="414.990234"/>
      <use xlink:href="#DejaVuSans-76" x="476.513672"/>
      <use xlink:href="#DejaVuSans-65" x="535.693359"/>
      <use xlink:href="#DejaVuSans-6b" x="597.216797"/>
      <use xlink:href="#DejaVuSans-20" x="655.126953"/>
      <use xlink:href="#DejaVuSans-73" x="686.914062"/>
      <use xlink:href="#DejaVuSans-7a" x="739.013672"/>
      <use xlink:href="#DejaVuSans-e1" x="791.503906"/>
      <use xlink:href="#DejaVuSans-6d" x="852.783203"/>
      <use xlink:href="#DejaVuSans-61" x="950.195312"/>
     </g>
    </g>
   </g>
   <g id="matplotlib.axis_2">
    <g id="ytick_1">
     <g id="line2d_10">
      <defs>
       <path id="m4dbfd9fbb3" d="M 0 0 
L -3.5 0 
" style="stroke: #000000; stroke-width: 0.8"/>
      </defs>
      <g>
       <use xlink:href="#m4dbfd9fbb3" x="108" y="456.563659" style="stroke: #000000; stroke-width: 0.8"/>
      </g>
     </g>
     <g id="text_11">
      <!-- 0 -->
      <g transform="translate(88.275 464.162096) scale(0.2 -0.2)">
       <use xlink:href="#DejaVuSans-30"/>
      </g>
     </g>
    </g>
    <g id="ytick_2">
     <g id="line2d_11">
      <g>
       <use xlink:href="#m4dbfd9fbb3" x="108" y="373.243683" style="stroke: #000000; stroke-width: 0.8"/>
      </g>
     </g>
     <g id="text_12">
      <!-- 2 -->
      <g transform="translate(88.275 380.842121) scale(0.2 -0.2)">
       <use xlink:href="#DejaVuSans-32"/>
      </g>
     </g>
    </g>
    <g id="ytick_3">
     <g id="line2d_12">
      <g>
       <use xlink:href="#m4dbfd9fbb3" x="108" y="289.923708" style="stroke: #000000; stroke-width: 0.8"/>
      </g>
     </g>
     <g id="text_13">
      <!-- 4 -->
      <g transform="translate(88.275 297.522145) scale(0.2 -0.2)">
       <defs>
        <path id="DejaVuSans-34" d="M 2419 4116 
L 825 1625 
L 2419 1625 
L 2419 4116 
z
M 2253 4666 
L 3047 4666 
L 3047 1625 
L 3713 1625 
L 3713 1100 
L 3047 1100 
L 3047 0 
L 2419 0 
L 2419 1100 
L 313 1100 
L 313 1709 
L 2253 4666 
z
" transform="scale(0.015625)"/>
       </defs>
       <use xlink:href="#DejaVuSans-34"/>
      </g>
     </g>
    </g>
    <g id="ytick_4">
     <g id="line2d_13">
      <g>
       <use xlink:href="#m4dbfd9fbb3" x="108" y="206.603732" style="stroke: #000000; stroke-width: 0.8"/>
      </g>
     </g>
     <g id="text_14">
      <!-- 6 -->
      <g transform="translate(88.275 214.20217) scale(0.2 -0.2)">
       <defs>
        <path id="DejaVuSans-36" d="M 2113 2584 
Q 1688 2584 1439 2293 
Q 1191 2003 1191 1497 
Q 1191 994 1439 701 
Q 1688 409 2113 409 
Q 2538 409 2786 701 
Q 3034 994 3034 1497 
Q 3034 2003 2786 2293 
Q 2538 2584 2113 2584 
z
M 3366 4563 
L 3366 3988 
Q 3128 4100 2886 4159 
Q 2644 4219 2406 4219 
Q 1781 4219 1451 3797 
Q 1122 3375 1075 2522 
Q 1259 2794 1537 2939 
Q 1816 3084 2150 3084 
Q 2853 3084 3261 2657 
Q 3669 2231 3669 1497 
Q 3669 778 3244 343 
Q 2819 -91 2113 -91 
Q 1303 -91 875 529 
Q 447 1150 447 2328 
Q 447 3434 972 4092 
Q 1497 4750 2381 4750 
Q 2619 4750 2861 4703 
Q 3103 4656 3366 4563 
z
" transform="scale(0.015625)"/>
       </defs>
       <use xlink:href="#DejaVuSans-36"/>
      </g>
     </g>
    </g>
    <g id="ytick_5">
     <g id="line2d_14">
      <g>
       <use xlink:href="#m4dbfd9fbb3" x="108" y="123.283757" style="stroke: #000000; stroke-width: 0.8"/>
      </g>
     </g>
     <g id="text_15">
      <!-- 8 -->
      <g transform="translate(88.275 130.882194) scale(0.2 -0.2)">
       <use xlink:href="#DejaVuSans-38"/>
      </g>
     </g>
    </g>
    <g id="text_16">
     <!-- Millió HUF -->
     <g style="fill: #187aba" transform="translate(79.699688 324.257192) rotate(-90) scale(0.22 -0.22)">
      <defs>
       <path id="DejaVuSans-4d" d="M 628 4666 
L 1569 4666 
L 2759 1491 
L 3956 4666 
L 4897 4666 
L 4897 0 
L 4281 0 
L 4281 4097 
L 3078 897 
L 2444 897 
L 1241 4097 
L 1241 0 
L 628 0 
L 628 4666 
z
" transform="scale(0.015625)"/>
       <path id="DejaVuSans-69" d="M 603 3500 
L 1178 3500 
L 1178 0 
L 603 0 
L 603 3500 
z
M 603 4863 
L 1178 4863 
L 1178 4134 
L 603 4134 
L 603 4863 
z
" transform="scale(0.015625)"/>
       <path id="DejaVuSans-f3" d="M 1959 3097 
Q 1497 3097 1228 2736 
Q 959 2375 959 1747 
Q 959 1119 1226 758 
Q 1494 397 1959 397 
Q 2419 397 2687 759 
Q 2956 1122 2956 1747 
Q 2956 2369 2687 2733 
Q 2419 3097 1959 3097 
z
M 1959 3584 
Q 2709 3584 3137 3096 
Q 3566 2609 3566 1747 
Q 3566 888 3137 398 
Q 2709 -91 1959 -91 
Q 1206 -91 779 398 
Q 353 888 353 1747 
Q 353 2609 779 3096 
Q 1206 3584 1959 3584 
z
M 2394 5119 
L 3016 5119 
L 1998 3944 
L 1519 3944 
L 2394 5119 
z
" transform="scale(0.015625)"/>
       <path id="DejaVuSans-48" d="M 628 4666 
L 1259 4666 
L 1259 2753 
L 3553 2753 
L 3553 4666 
L 4184 4666 
L 4184 0 
L 3553 0 
L 3553 2222 
L 1259 2222 
L 1259 0 
L 628 0 
L 628 4666 
z
" transform="scale(0.015625)"/>
       <path id="DejaVuSans-55" d="M 556 4666 
L 1191 4666 
L 1191 1831 
Q 1191 1081 1462 751 
Q 1734 422 2344 422 
Q 2950 422 3222 751 
Q 3494 1081 3494 1831 
L 3494 4666 
L 4128 4666 
L 4128 1753 
Q 4128 841 3676 375 
Q 3225 -91 2344 -91 
Q 1459 -91 1007 375 
Q 556 841 556 1753 
L 556 4666 
z
" transform="scale(0.015625)"/>
       <path id="DejaVuSans-46" d="M 628 4666 
L 3309 4666 
L 3309 4134 
L 1259 4134 
L 1259 2759 
L 3109 2759 
L 3109 2228 
L 1259 2228 
L 1259 0 
L 628 0 
L 628 4666 
z
" transform="scale(0.015625)"/>
      </defs>
      <use xlink:href="#DejaVuSans-4d"/>
      <use xlink:href="#DejaVuSans-69" x="86.279297"/>
      <use xlink:href="#DejaVuSans-6c" x="114.0625"/>
      <use xlink:href="#DejaVuSans-6c" x="141.845703"/>
      <use xlink:href="#DejaVuSans-69" x="169.628906"/>
      <use xlink:href="#DejaVuSans-f3" x="197.412109"/>
      <use xlink:href="#DejaVuSans-20" x="258.59375"/>
      <use xlink:href="#DejaVuSans-48" x="290.380859"/>
      <use xlink:href="#DejaVuSans-55" x="365.576172"/>
      <use xlink:href="#DejaVuSans-46" x="438.769531"/>
     </g>
    </g>
   </g>
   <g id="line2d_15">
    <path d="M 138.436364 425.318668 
L 168.872727 392.847921 
L 199.309091 359.103331 
L 229.745455 324.034924 
L 260.181818 287.590767 
L 290.618182 249.716888 
L 321.054545 210.357198 
L 351.490909 169.453408 
L 381.927273 126.944943 
L 412.363636 82.76885 
L 442.8 83.102295 
L 473.236364 83.44882 
L 503.672727 83.80894 
L 534.109091 84.183187 
L 564.545455 84.572116 
L 594.981818 84.976303 
L 625.418182 85.396347 
L 655.854545 85.832869 
L 686.290909 86.286516 
L 716.727273 86.75796 
L 747.163636 329.037699 
" clip-path="url(#p00276743e3)" style="fill: none; stroke: #187aba; stroke-width: 1.5; stroke-linecap: square"/>
    <defs>
     <path id="m50ac176b34" d="M 0 3 
C 0.795609 3 1.55874 2.683901 2.12132 2.12132 
C 2.683901 1.55874 3 0.795609 3 0 
C 3 -0.795609 2.683901 -1.55874 2.12132 -2.12132 
C 1.55874 -2.683901 0.795609 -3 0 -3 
C -0.795609 -3 -1.55874 -2.683901 -2.12132 -2.12132 
C -2.683901 -1.55874 -3 -0.795609 -3 0 
C -3 0.795609 -2.683901 1.55874 -2.12132 2.12132 
C -1.55874 2.683901 -0.795609 3 0 3 
z
" style="stroke: #187aba"/>
    </defs>
    <g clip-path="url(#p00276743e3)">
     <use xlink:href="#m50ac176b34" x="138.436364" y="425.318668" style="fill: #187aba; stroke: #187aba"/>
     <use xlink:href="#m50ac176b34" x="168.872727" y="392.847921" style="fill: #187aba; stroke: #187aba"/>
     <use xlink:href="#m50ac176b34" x="199.309091" y="359.103331" style="fill: #187aba; stroke: #187aba"/>
     <use xlink:href="#m50ac176b34" x="229.745455" y="324.034924" style="fill: #187aba; stroke: #187aba"/>
     <use xlink:href="#m50ac176b34" x="260.181818" y="287.590767" style="fill: #187aba; stroke: #187aba"/>
     <use xlink:href="#m50ac176b34" x="290.618182" y="249.716888" style="fill: #187aba; stroke: #187aba"/>
     <use xlink:href="#m50ac176b34" x="321.054545" y="210.357198" style="fill: #187aba; stroke: #187aba"/>
     <use xlink:href="#m50ac176b34" x="351.490909" y="169.453408" style="fill: #187aba; stroke: #187aba"/>
     <use xlink:href="#m50ac176b34" x="381.927273" y="126.944943" style="fill: #187aba; stroke: #187aba"/>
     <use xlink:href="#m50ac176b34" x="412.363636" y="82.76885" style="fill: #187aba; stroke: #187aba"/>
     <use xlink:href="#m50ac176b34" x="442.8" y="83.102295" style="fill: #187aba; stroke: #187aba"/>
     <use xlink:href="#m50ac176b34" x="473.236364" y="83.44882" style="fill: #187aba; stroke: #187aba"/>
     <use xlink:href="#m50ac176b34" x="503.672727" y="83.80894" style="fill: #187aba; stroke: #187aba"/>
     <use xlink:href="#m50ac176b34" x="534.109091" y="84.183187" style="fill: #187aba; stroke: #187aba"/>
     <use xlink:href="#m50ac176b34" x="564.545455" y="84.572116" style="fill: #187aba; stroke: #187aba"/>
     <use xlink:href="#m50ac176b34" x="594.981818" y="84.976303" style="fill: #187aba; stroke: #187aba"/>
     <use xlink:href="#m50ac176b34" x="625.418182" y="85.396347" style="fill: #187aba; stroke: #187aba"/>
     <use xlink:href="#m50ac176b34" x="655.854545" y="85.832869" style="fill: #187aba; stroke: #187aba"/>
     <use xlink:href="#m50ac176b34" x="686.290909" y="86.286516" style="fill: #187aba; stroke: #187aba"/>
     <use xlink:href="#m50ac176b34" x="716.727273" y="86.75796" style="fill: #187aba; stroke: #187aba"/>
     <use xlink:href="#m50ac176b34" x="747.163636" y="329.037699" style="fill: #187aba; stroke: #187aba"/>
    </g>
   </g>
   <g id="line2d_16">
    <path d="M 138.436364 456.563659 
L 168.872727 455.956675 
L 199.309091 454.706876 
L 229.745455 452.776783 
L 260.181818 450.127208 
L 290.618182 446.717175 
L 321.054545 442.503851 
L 351.490909 437.442462 
L 381.927273 431.486217 
L 412.363636 424.586221 
L 442.8 416.691387 
L 473.236364 408.646683 
L 503.672727 400.449394 
L 534.109091 392.096762 
L 564.545455 383.585986 
L 594.981818 374.914219 
L 625.418182 366.07857 
L 655.854545 357.0761 
L 686.290909 347.903826 
L 716.727273 338.558718 
L 747.163636 329.037699 
" clip-path="url(#p00276743e3)" style="fill: none; stroke: #002b51; stroke-width: 1.5; stroke-linecap: square"/>
    <defs>
     <path id="m7c22f4b54c" d="M 0 -3 
L -3 3 
L 3 3 
z
" style="stroke: #002b51; stroke-linejoin: miter"/>
    </defs>
    <g clip-path="url(#p00276743e3)">
     <use xlink:href="#m7c22f4b54c" x="138.436364" y="456.563659" style="fill: #002b51; stroke: #002b51; stroke-linejoin: miter"/>
     <use xlink:href="#m7c22f4b54c" x="168.872727" y="455.956675" style="fill: #002b51; stroke: #002b51; stroke-linejoin: miter"/>
     <use xlink:href="#m7c22f4b54c" x="199.309091" y="454.706876" style="fill: #002b51; stroke: #002b51; stroke-linejoin: miter"/>
     <use xlink:href="#m7c22f4b54c" x="229.745455" y="452.776783" style="fill: #002b51; stroke: #002b51; stroke-linejoin: miter"/>
     <use xlink:href="#m7c22f4b54c" x="260.181818" y="450.127208" style="fill: #002b51; stroke: #002b51; stroke-linejoin: miter"/>
     <use xlink:href="#m7c22f4b54c" x="290.618182" y="446.717175" style="fill: #002b51; stroke: #002b51; stroke-linejoin: miter"/>
     <use xlink:href="#m7c22f4b54c" x="321.054545" y="442.503851" style="fill: #002b51; stroke: #002b51; stroke-linejoin: miter"/>
     <use xlink:href="#m7c22f4b54c" x="351.490909" y="437.442462" style="fill: #002b51; stroke: #002b51; stroke-linejoin: miter"/>
     <use xlink:href="#m7c22f4b54c" x="381.927273" y="431.486217" style="fill: #002b51; stroke: #002b51; stroke-linejoin: miter"/>
     <use xlink:href="#m7c22f4b54c" x="412.363636" y="424.586221" style="fill: #002b51; stroke: #002b51; stroke-linejoin: miter"/>
     <use xlink:href="#m7c22f4b54c" x="442.8" y="416.691387" style="fill: #002b51; stroke: #002b51; stroke-linejoin: miter"/>
     <use xlink:href="#m7c22f4b54c" x="473.236364" y="408.646683" style="fill: #002b51; stroke: #002b51; stroke-linejoin: miter"/>
     <use xlink:href="#m7c22f4b54c" x="503.672727" y="400.449394" style="fill: #002b51; stroke: #002b51; stroke-linejoin: miter"/>
     <use xlink:href="#m7c22f4b54c" x="534.109091" y="392.096762" style="fill: #002b51; stroke: #002b51; stroke-linejoin: miter"/>
     <use xlink:href="#m7c22f4b54c" x="564.545455" y="383.585986" style="fill: #002b51; stroke: #002b51; stroke-linejoin: miter"/>
     <use xlink:href="#m7c22f4b54c" x="594.981818" y="374.914219" style="fill: #002b51; stroke: #002b51; stroke-linejoin: miter"/>
     <use xlink:href="#m7c22f4b54c" x="625.418182" y="366.07857" style="fill: #002b51; stroke: #002b51; stroke-linejoin: miter"/>
     <use xlink:href="#m7c22f4b54c" x="655.854545" y="357.0761" style="fill: #002b51; stroke: #002b51; stroke-linejoin: miter"/>
     <use xlink:href="#m7c22f4b54c" x="686.290909" y="347.903826" style="fill: #002b51; stroke: #002b51; stroke-linejoin: miter"/>
     <use xlink:href="#m7c22f4b54c" x="716.727273" y="338.558718" style="fill: #002b51; stroke: #002b51; stroke-linejoin: miter"/>
     <use xlink:href="#m7c22f4b54c" x="747.163636" y="329.037699" style="fill: #002b51; stroke: #002b51; stroke-linejoin: miter"/>
    </g>
   </g>
   <g id="patch_3">
    <path d="M 108 475.253399 
L 108 64.07911 
" style="fill: none; stroke: #000000; stroke-width: 0.8; stroke-linejoin: miter; stroke-linecap: square"/>
   </g>
   <g id="patch_4">
    <path d="M 777.6 475.253399 
L 777.6 64.07911 
" style="fill: none; stroke: #000000; stroke-width: 0.8; stroke-linejoin: miter; stroke-linecap: square"/>
   </g>
   <g id="patch_5">
    <path d="M 108 475.253399 
L 777.6 475.253399 
" style="fill: none; stroke: #000000; stroke-width: 0.8; stroke-linejoin: miter; stroke-linecap: square"/>
   </g>
   <g id="patch_6">
    <path d="M 108 64.07911 
L 777.6 64.07911 
" style="fill: none; stroke: #000000; stroke-width: 0.8; stroke-linejoin: miter; stroke-linecap: square"/>
   </g>
   <g id="text_17">
    <!-- 1. Stratégia elemzése 10 éven át -->
    <g style="fill: #187aba" transform="translate(210.130937 58.07911) scale(0.28 -0.28)">
     <defs>
      <path id="DejaVuSans-2e" d="M 684 794 
L 1344 794 
L 1344 0 
L 684 0 
L 684 794 
z
" transform="scale(0.015625)"/>
      <path id="DejaVuSans-53" d="M 3425 4513 
L 3425 3897 
Q 3066 4069 2747 4153 
Q 2428 4238 2131 4238 
Q 1616 4238 1336 4038 
Q 1056 3838 1056 3469 
Q 1056 3159 1242 3001 
Q 1428 2844 1947 2747 
L 2328 2669 
Q 3034 2534 3370 2195 
Q 3706 1856 3706 1288 
Q 3706 609 3251 259 
Q 2797 -91 1919 -91 
Q 1588 -91 1214 -16 
Q 841 59 441 206 
L 441 856 
Q 825 641 1194 531 
Q 1563 422 1919 422 
Q 2459 422 2753 634 
Q 3047 847 3047 1241 
Q 3047 1584 2836 1778 
Q 2625 1972 2144 2069 
L 1759 2144 
Q 1053 2284 737 2584 
Q 422 2884 422 3419 
Q 422 4038 858 4394 
Q 1294 4750 2059 4750 
Q 2388 4750 2728 4690 
Q 3069 4631 3425 4513 
z
" transform="scale(0.015625)"/>
      <path id="DejaVuSans-72" d="M 2631 2963 
Q 2534 3019 2420 3045 
Q 2306 3072 2169 3072 
Q 1681 3072 1420 2755 
Q 1159 2438 1159 1844 
L 1159 0 
L 581 0 
L 581 3500 
L 1159 3500 
L 1159 2956 
Q 1341 3275 1631 3429 
Q 1922 3584 2338 3584 
Q 2397 3584 2469 3576 
Q 2541 3569 2628 3553 
L 2631 2963 
z
" transform="scale(0.015625)"/>
      <path id="DejaVuSans-67" d="M 2906 1791 
Q 2906 2416 2648 2759 
Q 2391 3103 1925 3103 
Q 1463 3103 1205 2759 
Q 947 2416 947 1791 
Q 947 1169 1205 825 
Q 1463 481 1925 481 
Q 2391 481 2648 825 
Q 2906 1169 2906 1791 
z
M 3481 434 
Q 3481 -459 3084 -895 
Q 2688 -1331 1869 -1331 
Q 1566 -1331 1297 -1286 
Q 1028 -1241 775 -1147 
L 775 -588 
Q 1028 -725 1275 -790 
Q 1522 -856 1778 -856 
Q 2344 -856 2625 -561 
Q 2906 -266 2906 331 
L 2906 616 
Q 2728 306 2450 153 
Q 2172 0 1784 0 
Q 1141 0 747 490 
Q 353 981 353 1791 
Q 353 2603 747 3093 
Q 1141 3584 1784 3584 
Q 2172 3584 2450 3431 
Q 2728 3278 2906 2969 
L 2906 3500 
L 3481 3500 
L 3481 434 
z
" transform="scale(0.015625)"/>
      <path id="DejaVuSans-6e" d="M 3513 2113 
L 3513 0 
L 2938 0 
L 2938 2094 
Q 2938 2591 2744 2837 
Q 2550 3084 2163 3084 
Q 1697 3084 1428 2787 
Q 1159 2491 1159 1978 
L 1159 0 
L 581 0 
L 581 3500 
L 1159 3500 
L 1159 2956 
Q 1366 3272 1645 3428 
Q 1925 3584 2291 3584 
Q 2894 3584 3203 3211 
Q 3513 2838 3513 2113 
z
" transform="scale(0.015625)"/>
     </defs>
     <use xlink:href="#DejaVuSans-31"/>
     <use xlink:href="#DejaVuSans-2e" x="63.623047"/>
     <use xlink:href="#DejaVuSans-20" x="95.410156"/>
     <use xlink:href="#DejaVuSans-53" x="127.197266"/>
     <use xlink:href="#DejaVuSans-74" x="190.673828"/>
     <use xlink:href="#DejaVuSans-72" x="229.882812"/>
     <use xlink:href="#DejaVuSans-61" x="270.996094"/>
     <use xlink:href="#DejaVuSans-74" x="332.275391"/>
     <use xlink:href="#DejaVuSans-e9" x="371.484375"/>
     <use xlink:href="#DejaVuSans-67" x="433.007812"/>
     <use xlink:href="#DejaVuSans-69" x="496.484375"/>
     <use xlink:href="#DejaVuSans-61" x="524.267578"/>
     <use xlink:href="#DejaVuSans-20" x="585.546875"/>
     <use xlink:href="#DejaVuSans-65" x="617.333984"/>
     <use xlink:href="#DejaVuSans-6c" x="678.857422"/>
     <use xlink:href="#DejaVuSans-65" x="706.640625"/>
     <use xlink:href="#DejaVuSans-6d" x="768.164062"/>
     <use xlink:href="#DejaVuSans-7a" x="865.576172"/>
     <use xlink:href="#DejaVuSans-e9" x="918.066406"/>
     <use xlink:href="#DejaVuSans-73" x="979.589844"/>
     <use xlink:href="#DejaVuSans-65" x="1031.689453"/>
     <use xlink:href="#DejaVuSans-20" x="1093.212891"/>
     <use xlink:href="#DejaVuSans-31" x="1125"/>
     <use xlink:href="#DejaVuSans-30" x="1188.623047"/>
     <use xlink:href="#DejaVuSans-20" x="1252.246094"/>
     <use xlink:href="#DejaVuSans-e9" x="1284.033203"/>
     <use xlink:href="#DejaVuSans-76" x="1345.556641"/>
     <use xlink:href="#DejaVuSans-65" x="1404.736328"/>
     <use xlink:href="#DejaVuSans-6e" x="1466.259766"/>
     <use xlink:href="#DejaVuSans-20" x="1529.638672"/>
     <use xlink:href="#DejaVuSans-e1" x="1561.425781"/>
     <use xlink:href="#DejaVuSans-74" x="1622.705078"/>
    </g>
   </g>
   <g id="legend_1">
    <g id="patch_7">
     <path d="M 117.8 116.93786 
L 242.88125 116.93786 
Q 245.68125 116.93786 245.68125 114.13786 
L 245.68125 73.87911 
Q 245.68125 71.07911 242.88125 71.07911 
L 117.8 71.07911 
Q 115 71.07911 115 73.87911 
L 115 114.13786 
Q 115 116.93786 117.8 116.93786 
z
" style="fill: #ffffff; opacity: 0.8; stroke: #cccccc; stroke-linejoin: miter"/>
    </g>
    <g id="line2d_17">
     <path d="M 120.6 82.416923 
L 134.6 82.416923 
L 148.6 82.416923 
" style="fill: none; stroke: #187aba; stroke-width: 1.5; stroke-linecap: square"/>
     <g>
      <use xlink:href="#m50ac176b34" x="134.6" y="82.416923" style="fill: #187aba; stroke: #187aba"/>
     </g>
    </g>
    <g id="text_18">
     <!-- Befektetett -->
     <g transform="translate(159.8 87.316923) scale(0.14 -0.14)">
      <defs>
       <path id="DejaVuSans-42" d="M 1259 2228 
L 1259 519 
L 2272 519 
Q 2781 519 3026 730 
Q 3272 941 3272 1375 
Q 3272 1813 3026 2020 
Q 2781 2228 2272 2228 
L 1259 2228 
z
M 1259 4147 
L 1259 2741 
L 2194 2741 
Q 2656 2741 2882 2914 
Q 3109 3088 3109 3444 
Q 3109 3797 2882 3972 
Q 2656 4147 2194 4147 
L 1259 4147 
z
M 628 4666 
L 2241 4666 
Q 2963 4666 3353 4366 
Q 3744 4066 3744 3513 
Q 3744 3084 3544 2831 
Q 3344 2578 2956 2516 
Q 3422 2416 3680 2098 
Q 3938 1781 3938 1306 
Q 3938 681 3513 340 
Q 3088 0 2303 0 
L 628 0 
L 628 4666 
z
" transform="scale(0.015625)"/>
      </defs>
      <use xlink:href="#DejaVuSans-42"/>
      <use xlink:href="#DejaVuSans-65" x="68.603516"/>
      <use xlink:href="#DejaVuSans-66" x="130.126953"/>
      <use xlink:href="#DejaVuSans-65" x="165.332031"/>
      <use xlink:href="#DejaVuSans-6b" x="226.855469"/>
      <use xlink:href="#DejaVuSans-74" x="284.765625"/>
      <use xlink:href="#DejaVuSans-65" x="323.974609"/>
      <use xlink:href="#DejaVuSans-74" x="385.498047"/>
      <use xlink:href="#DejaVuSans-65" x="424.707031"/>
      <use xlink:href="#DejaVuSans-74" x="486.230469"/>
      <use xlink:href="#DejaVuSans-74" x="525.439453"/>
     </g>
    </g>
    <g id="line2d_18">
     <path d="M 120.6 103.526298 
L 134.6 103.526298 
L 148.6 103.526298 
" style="fill: none; stroke: #002b51; stroke-width: 1.5; stroke-linecap: square"/>
     <g>
      <use xlink:href="#m7c22f4b54c" x="134.6" y="103.526298" style="fill: #002b51; stroke: #002b51; stroke-linejoin: miter"/>
     </g>
    </g>
    <g id="text_19">
     <!-- Nettó profit -->
     <g transform="translate(159.8 108.426298) scale(0.14 -0.14)">
      <defs>
       <path id="DejaVuSans-4e" d="M 628 4666 
L 1478 4666 
L 3547 763 
L 3547 4666 
L 4159 4666 
L 4159 0 
L 3309 0 
L 1241 3903 
L 1241 0 
L 628 0 
L 628 4666 
z
" transform="scale(0.015625)"/>
       <path id="DejaVuSans-70" d="M 1159 525 
L 1159 -1331 
L 581 -1331 
L 581 3500 
L 1159 3500 
L 1159 2969 
Q 1341 3281 1617 3432 
Q 1894 3584 2278 3584 
Q 2916 3584 3314 3078 
Q 3713 2572 3713 1747 
Q 3713 922 3314 415 
Q 2916 -91 2278 -91 
Q 1894 -91 1617 61 
Q 1341 213 1159 525 
z
M 3116 1747 
Q 3116 2381 2855 2742 
Q 2594 3103 2138 3103 
Q 1681 3103 1420 2742 
Q 1159 2381 1159 1747 
Q 1159 1113 1420 752 
Q 1681 391 2138 391 
Q 2594 391 2855 752 
Q 3116 1113 3116 1747 
z
" transform="scale(0.015625)"/>
       <path id="DejaVuSans-6f" d="M 1959 3097 
Q 1497 3097 1228 2736 
Q 959 2375 959 1747 
Q 959 1119 1226 758 
Q 1494 397 1959 397 
Q 2419 397 2687 759 
Q 2956 1122 2956 1747 
Q 2956 2369 2687 2733 
Q 2419 3097 1959 3097 
z
M 1959 3584 
Q 2709 3584 3137 3096 
Q 3566 2609 3566 1747 
Q 3566 888 3137 398 
Q 2709 -91 1959 -91 
Q 1206 -91 779 398 
Q 353 888 353 1747 
Q 353 2609 779 3096 
Q 1206 3584 1959 3584 
z
" transform="scale(0.015625)"/>
      </defs>
      <use xlink:href="#DejaVuSans-4e"/>
      <use xlink:href="#DejaVuSans-65" x="74.804688"/>
      <use xlink:href="#DejaVuSans-74" x="136.328125"/>
      <use xlink:href="#DejaVuSans-74" x="175.537109"/>
      <use xlink:href="#DejaVuSans-f3" x="214.746094"/>
      <use xlink:href="#DejaVuSans-20" x="275.927734"/>
      <use xlink:href="#DejaVuSans-70" x="307.714844"/>
      <use xlink:href="#DejaVuSans-72" x="371.191406"/>
      <use xlink:href="#DejaVuSans-6f" x="410.054688"/>
      <use xlink:href="#DejaVuSans-66" x="471.236328"/>
      <use xlink:href="#DejaVuSans-69" x="506.441406"/>
      <use xlink:href="#DejaVuSans-74" x="534.224609"/>
     </g>
    </g>
   </g>
  </g>
 </g>
 <defs>
  <clipPath id="p00276743e3">
   <rect x="108" y="64.07911" width="669.6" height="411.174289"/>
  </clipPath>
 </defs>
</svg>
